<?xml version="1.0" encoding="utf-8"?>
<!-- Generator: Adobe Illustrator 23.0.3, SVG Export Plug-In . SVG Version: 6.00 Build 0)  -->
<svg version="1.1" id="FR_Download_on_the_App_Store"
	 xmlns="http://www.w3.org/2000/svg" xmlns:xlink="http://www.w3.org/1999/xlink" x="0px" y="0px" viewBox="0 0 155.7 45"
	 style="enable-background:new 0 0 155.7 45;" xml:space="preserve">
<style type="text/css">
	.st0{fill:#FFFFFF;}
</style>
<path id="Path_66" d="M155.7,40.5c0,2.5-2,4.5-4.5,4.5H4.5C2,45,0,43,0,40.5v-36C0,2,2,0,4.5,0h146.7c2.5,0,4.5,2,4.5,4.5
	c0,0,0,0,0,0V40.5z"/>
<g>
	<g>
		<g>
			<path class="st0" d="M33.1,21.3c0-3.9,3.2-5.7,3.3-5.8c-1.8-2.6-4.6-3-5.6-3c-2.4-0.2-4.6,1.4-5.8,1.4c-1.2,0-3.1-1.4-5.1-1.3
				c-2.6,0-5,1.5-6.3,3.8c-2.7,4.7-0.7,11.6,1.9,15.4c1.3,1.9,2.8,3.9,4.8,3.9c1.9-0.1,2.7-1.2,5-1.2c2.3,0,3,1.2,5,1.2
				c2.1,0,3.4-1.9,4.7-3.7c1.5-2.1,2.1-4.2,2.1-4.3C37.1,27.4,33.1,25.9,33.1,21.3z"/>
			<path class="st0" d="M29.2,9.9c1-1.3,1.8-3.1,1.6-4.9c-1.5,0.1-3.4,1-4.5,2.3c-1,1.1-1.8,3-1.6,4.7C26.4,12.2,28.1,11.2,29.2,9.9
				z"/>
		</g>
	</g>
	<g>
		<path class="st0" d="M61.3,35.3h-2.7L57,30.6h-5.2l-1.4,4.7h-2.7l5.1-16h3.2L61.3,35.3z M56.6,28.7l-1.3-4.2
			c-0.1-0.4-0.4-1.4-0.8-3h0c-0.2,0.7-0.4,1.7-0.8,3l-1.3,4.2C52.3,28.7,56.6,28.7,56.6,28.7z"/>
		<path class="st0" d="M74.5,29.4c0,2-0.5,3.5-1.6,4.6c-0.9,1-2.1,1.5-3.5,1.5c-1.5,0-2.6-0.5-3.3-1.6h0V40h-2.6V27.6
			c0-1.2,0-2.5-0.1-3.8h2.2l0.1,1.8h0c0.9-1.4,2.1-2.1,3.9-2.1c1.4,0,2.5,0.5,3.4,1.6C74,26.3,74.5,27.7,74.5,29.4z M71.9,29.5
			c0-1.1-0.3-2-0.8-2.8c-0.6-0.8-1.3-1.1-2.2-1.1c-0.6,0-1.2,0.2-1.7,0.6c-0.5,0.4-0.8,1-1,1.6c-0.1,0.3-0.1,0.6-0.1,0.8v1.9
			c0,0.8,0.3,1.5,0.8,2.1c0.5,0.6,1.2,0.9,2,0.9c1,0,1.7-0.4,2.2-1.1C71.6,31.7,71.9,30.7,71.9,29.5z"/>
		<path class="st0" d="M87.7,29.4c0,2-0.5,3.5-1.6,4.6c-0.9,1-2.1,1.5-3.5,1.5c-1.5,0-2.6-0.5-3.3-1.6h0V40h-2.6V27.6
			c0-1.2,0-2.5-0.1-3.8h2.2l0.1,1.8h0c0.9-1.4,2.1-2.1,3.9-2.1c1.4,0,2.5,0.5,3.4,1.6C87.2,26.3,87.7,27.7,87.7,29.4z M85.1,29.5
			c0-1.1-0.3-2-0.8-2.8c-0.6-0.8-1.3-1.1-2.2-1.1c-0.6,0-1.2,0.2-1.7,0.6c-0.5,0.4-0.8,1-1,1.6c-0.1,0.3-0.1,0.6-0.1,0.8v1.9
			c0,0.8,0.3,1.5,0.8,2.1c0.5,0.6,1.2,0.9,2,0.9c1,0,1.7-0.4,2.2-1.1C84.8,31.7,85.1,30.7,85.1,29.5z"/>
		<path class="st0" d="M102.5,30.8c0,1.4-0.5,2.5-1.4,3.3c-1,0.9-2.5,1.4-4.3,1.4c-1.7,0-3.1-0.3-4.1-1l0.6-2.1c1.1,0.7,2.4,1,3.7,1
			c1,0,1.7-0.2,2.3-0.7c0.5-0.4,0.8-1,0.8-1.7c0-0.6-0.2-1.2-0.7-1.6c-0.4-0.4-1.2-0.9-2.2-1.2c-2.8-1-4.2-2.6-4.2-4.6
			c0-1.3,0.5-2.4,1.5-3.2c1-0.8,2.3-1.3,3.9-1.3c1.5,0,2.7,0.3,3.6,0.8l-0.6,2.1c-0.9-0.5-1.9-0.7-3.1-0.7c-0.9,0-1.6,0.2-2.1,0.7
			c-0.4,0.4-0.6,0.9-0.6,1.4c0,0.6,0.2,1.2,0.7,1.6c0.4,0.4,1.2,0.8,2.3,1.2c1.4,0.6,2.4,1.2,3,1.9
			C102.2,28.8,102.5,29.7,102.5,30.8z"/>
		<path class="st0" d="M110.9,25.7h-2.8v5.6c0,1.4,0.5,2.1,1.5,2.1c0.5,0,0.8,0,1.1-0.1l0.1,1.9c-0.5,0.2-1.2,0.3-2,0.3
			c-1,0-1.8-0.3-2.4-0.9c-0.6-0.6-0.9-1.6-0.9-3.1v-5.8h-1.7v-1.9h1.7v-2.1l2.5-0.8v2.9h2.8C110.9,23.8,110.9,25.7,110.9,25.7z"/>
		<path class="st0" d="M123.7,29.5c0,1.8-0.5,3.2-1.5,4.4c-1.1,1.2-2.5,1.8-4.2,1.8c-1.7,0-3-0.6-4-1.7c-1-1.1-1.5-2.5-1.5-4.2
			c0-1.8,0.5-3.2,1.5-4.4c1-1.1,2.4-1.7,4.2-1.7c1.7,0,3,0.6,4.1,1.7C123.2,26.3,123.7,27.7,123.7,29.5z M121,29.5
			c0-1.1-0.2-2-0.7-2.7c-0.5-0.9-1.3-1.4-2.3-1.4c-1,0-1.8,0.5-2.3,1.4c-0.5,0.8-0.7,1.7-0.7,2.8c0,1.1,0.2,2,0.7,2.7
			c0.6,0.9,1.3,1.4,2.3,1.4c1,0,1.7-0.5,2.3-1.4C120.8,31.5,121,30.6,121,29.5z"/>
		<path class="st0" d="M132,26.1c-0.3,0-0.5-0.1-0.8-0.1c-0.9,0-1.6,0.3-2.1,1c-0.4,0.6-0.6,1.4-0.6,2.3v6h-2.6l0-7.9
			c0-1.3,0-2.5-0.1-3.6h2.2l0.1,2.2h0.1c0.3-0.8,0.7-1.4,1.3-1.8c0.6-0.4,1.2-0.6,1.8-0.6c0.2,0,0.4,0,0.6,0
			C132,23.6,132,26.1,132,26.1z"/>
		<path class="st0" d="M143.4,29c0,0.5,0,0.8-0.1,1.2h-7.7c0,1.1,0.4,2,1.1,2.6c0.6,0.5,1.5,0.8,2.5,0.8c1.1,0,2.2-0.2,3.1-0.5
			l0.4,1.8c-1.1,0.5-2.4,0.7-3.9,0.7c-1.8,0-3.2-0.5-4.2-1.6c-1-1-1.5-2.5-1.5-4.2c0-1.7,0.5-3.2,1.4-4.3c1-1.2,2.3-1.8,4-1.8
			c1.7,0,2.9,0.6,3.8,1.8C143,26.4,143.4,27.6,143.4,29z M141,28.4c0-0.8-0.1-1.4-0.5-2c-0.4-0.7-1.1-1.1-2-1.1c-0.8,0-1.5,0.3-2,1
			c-0.4,0.6-0.7,1.2-0.8,2L141,28.4L141,28.4L141,28.4z"/>
	</g>
	<g>
		<g>
			<path class="st0" d="M55.8,9.5c0,1.4-0.4,2.5-1.3,3.2c-0.8,0.7-1.9,1-3.3,1c-0.7,0-1.3,0-1.8-0.1V5.9c0.7-0.1,1.4-0.2,2.2-0.2
				c1.4,0,2.4,0.3,3.1,0.9C55.4,7.3,55.8,8.3,55.8,9.5z M54.4,9.6c0-0.9-0.2-1.6-0.7-2.1c-0.5-0.5-1.2-0.7-2.1-0.7
				c-0.4,0-0.7,0-1,0.1v5.9c0.2,0,0.4,0,0.8,0c1,0,1.7-0.3,2.2-0.8C54.2,11.4,54.4,10.6,54.4,9.6z"/>
			<path class="st0" d="M62.8,10.8c0,0.9-0.2,1.6-0.7,2.1c-0.5,0.6-1.2,0.9-2.1,0.9c-0.8,0-1.5-0.3-2-0.8c-0.5-0.6-0.7-1.2-0.7-2.1
				c0-0.9,0.3-1.6,0.8-2.2c0.5-0.6,1.2-0.8,2.1-0.8c0.8,0,1.5,0.3,2,0.8C62.5,9.2,62.8,9.9,62.8,10.8z M61.5,10.8
				c0-0.5-0.1-1-0.3-1.3C60.9,9,60.5,8.8,60,8.8c-0.5,0-0.9,0.2-1.2,0.7c-0.2,0.4-0.3,0.8-0.3,1.4c0,0.5,0.1,1,0.3,1.3
				c0.3,0.5,0.7,0.7,1.1,0.7c0.5,0,0.9-0.2,1.1-0.7C61.4,11.8,61.5,11.3,61.5,10.8z"/>
			<path class="st0" d="M72.2,8l-1.8,5.7h-1.2l-0.7-2.5c-0.2-0.6-0.3-1.2-0.5-1.8h0c-0.1,0.6-0.3,1.2-0.5,1.8l-0.8,2.5h-1.2L64,8
				h1.3l0.6,2.7c0.2,0.6,0.3,1.2,0.4,1.8h0c0.1-0.5,0.2-1.1,0.5-1.8L67.6,8h1l0.8,2.6c0.2,0.6,0.3,1.3,0.5,1.9h0
				c0.1-0.6,0.2-1.2,0.4-1.9L71,8L72.2,8L72.2,8L72.2,8z"/>
			<path class="st0" d="M78.7,13.7h-1.3v-3.2c0-1-0.4-1.5-1.1-1.5c-0.4,0-0.7,0.1-0.9,0.4c-0.2,0.3-0.3,0.6-0.3,1v3.4h-1.3v-4
				c0-0.5,0-1,0-1.6h1.1l0.1,0.9h0c0.1-0.3,0.4-0.5,0.7-0.7c0.3-0.2,0.7-0.3,1.1-0.3c0.5,0,1,0.2,1.3,0.5c0.4,0.4,0.7,1,0.7,1.9
				L78.7,13.7L78.7,13.7z"/>
			<path class="st0" d="M82.2,13.7h-1.3V5.4h1.3V13.7z"/>
			<path class="st0" d="M89.6,10.8c0,0.9-0.2,1.6-0.7,2.1c-0.5,0.6-1.2,0.9-2.1,0.9c-0.8,0-1.5-0.3-2-0.8c-0.5-0.6-0.7-1.2-0.7-2.1
				c0-0.9,0.3-1.6,0.8-2.2c0.5-0.6,1.2-0.8,2.1-0.8c0.8,0,1.5,0.3,2,0.8C89.3,9.2,89.6,9.9,89.6,10.8z M88.3,10.8
				c0-0.5-0.1-1-0.3-1.3c-0.3-0.5-0.6-0.7-1.1-0.7c-0.5,0-0.9,0.2-1.2,0.7c-0.2,0.4-0.3,0.8-0.3,1.4c0,0.5,0.1,1,0.3,1.3
				c0.3,0.5,0.7,0.7,1.1,0.7c0.5,0,0.9-0.2,1.1-0.7C88.1,11.8,88.3,11.3,88.3,10.8z"/>
			<path class="st0" d="M95.6,13.7h-1.1L94.4,13h0c-0.4,0.5-0.9,0.8-1.7,0.8c-0.5,0-1-0.2-1.3-0.5C91.2,13,91,12.6,91,12.1
				c0-0.7,0.3-1.2,0.9-1.6c0.6-0.4,1.4-0.5,2.4-0.5V9.9c0-0.7-0.4-1.1-1.2-1.1c-0.6,0-1,0.1-1.5,0.4l-0.3-0.8
				c0.5-0.3,1.2-0.5,1.9-0.5c1.5,0,2.2,0.8,2.2,2.3v2.1C95.6,12.9,95.6,13.3,95.6,13.7z M94.3,11.7v-0.9c-1.4,0-2.1,0.4-2.1,1.1
				c0,0.3,0.1,0.5,0.2,0.7c0.2,0.1,0.4,0.2,0.6,0.2c0.3,0,0.5-0.1,0.8-0.3c0.2-0.2,0.4-0.4,0.4-0.7C94.3,11.9,94.3,11.8,94.3,11.7z"
				/>
			<path class="st0" d="M102.8,13.7h-1.1l-0.1-0.9h0c-0.4,0.7-1,1-1.8,1c-0.7,0-1.2-0.3-1.7-0.8s-0.7-1.2-0.7-2.1
				c0-0.9,0.2-1.7,0.7-2.2c0.5-0.5,1.1-0.8,1.7-0.8c0.8,0,1.3,0.3,1.6,0.8h0V5.4h1.3v6.7C102.7,12.7,102.8,13.2,102.8,13.7z
				 M101.5,11.3v-0.9c0-0.2,0-0.3,0-0.4c-0.1-0.3-0.2-0.6-0.5-0.8c-0.2-0.2-0.5-0.3-0.8-0.3c-0.5,0-0.8,0.2-1.1,0.6
				c-0.3,0.4-0.4,0.8-0.4,1.4c0,0.6,0.1,1,0.4,1.4c0.3,0.4,0.6,0.6,1.1,0.6c0.4,0,0.7-0.2,1-0.5C101.4,12,101.5,11.7,101.5,11.3z"/>
			<path class="st0" d="M113.5,10.8c0,0.9-0.2,1.6-0.7,2.1c-0.5,0.6-1.2,0.9-2.1,0.9c-0.8,0-1.5-0.3-2-0.8c-0.5-0.6-0.7-1.2-0.7-2.1
				c0-0.9,0.3-1.6,0.8-2.2c0.5-0.6,1.2-0.8,2.1-0.8c0.8,0,1.5,0.3,2,0.8C113.3,9.2,113.5,9.9,113.5,10.8z M112.2,10.8
				c0-0.5-0.1-1-0.3-1.3c-0.3-0.5-0.6-0.7-1.1-0.7c-0.5,0-0.9,0.2-1.2,0.7c-0.2,0.4-0.3,0.8-0.3,1.4c0,0.5,0.1,1,0.3,1.3
				c0.3,0.5,0.7,0.7,1.1,0.7c0.5,0,0.9-0.2,1.1-0.7C112.1,11.8,112.2,11.3,112.2,10.8z"/>
			<path class="st0" d="M120.3,13.7H119v-3.2c0-1-0.4-1.5-1.1-1.5c-0.4,0-0.7,0.1-0.9,0.4c-0.2,0.3-0.3,0.6-0.3,1v3.4h-1.3v-4
				c0-0.5,0-1,0-1.6h1.1l0.1,0.9h0c0.1-0.3,0.4-0.5,0.7-0.7c0.3-0.2,0.7-0.3,1.1-0.3c0.5,0,1,0.2,1.3,0.5c0.4,0.4,0.7,1,0.7,1.9
				L120.3,13.7L120.3,13.7z"/>
			<path class="st0" d="M128.7,8.9h-1.4v2.7c0,0.7,0.2,1,0.7,1c0.2,0,0.4,0,0.6-0.1l0,1c-0.2,0.1-0.6,0.1-1,0.1
				c-0.5,0-0.9-0.2-1.2-0.5c-0.3-0.3-0.4-0.8-0.4-1.5V8.9h-0.8V8h0.8V7l1.2-0.4V8h1.4L128.7,8.9L128.7,8.9L128.7,8.9z"/>
			<path class="st0" d="M135.4,13.7h-1.3v-3.2c0-1-0.4-1.5-1.1-1.5c-0.6,0-1,0.3-1.2,0.9c0,0.1-0.1,0.3-0.1,0.5v3.4h-1.3V5.4h1.3
				v3.4h0c0.4-0.6,1-0.9,1.7-0.9c0.5,0,1,0.2,1.3,0.5c0.4,0.4,0.6,1.1,0.6,1.9C135.4,10.3,135.4,13.7,135.4,13.7z"/>
			<path class="st0" d="M142.3,10.6c0,0.2,0,0.4,0,0.6h-3.8c0,0.6,0.2,1,0.5,1.3c0.3,0.3,0.7,0.4,1.2,0.4c0.6,0,1.1-0.1,1.5-0.3
				l0.2,0.9c-0.5,0.2-1.2,0.3-1.9,0.3c-0.9,0-1.6-0.3-2.1-0.8c-0.5-0.5-0.7-1.2-0.7-2.1c0-0.9,0.2-1.6,0.7-2.1
				c0.5-0.6,1.1-0.9,2-0.9c0.8,0,1.4,0.3,1.8,0.9C142.1,9.3,142.3,9.9,142.3,10.6z M141.1,10.2c0-0.4-0.1-0.7-0.2-1
				c-0.2-0.3-0.6-0.5-1-0.5c-0.4,0-0.7,0.2-1,0.5c-0.2,0.3-0.3,0.6-0.4,1H141.1z"/>
		</g>
	</g>
</g>
</svg>
