<svg xmlns="http://www.w3.org/2000/svg" width="121" height="50" viewBox="0 0 121 50">
    <g fill="#FFF" fill-rule="evenodd">
        <path d="M101.672 25.693c-1.873.127-3.464 1.791-3.513 3.662-.13 1.924 1.408 3.757 3.318 3.997 1.193.161 2.448-.256 3.288-1.12.973-.967 1.36-2.475.956-3.787-.47-1.725-2.266-2.944-4.049-2.752M71.452 2.361c-.986.215-1.669 1.212-1.64 2.196 0 1.912.002 3.824 0 5.736.017 1.562-.1 3.143.257 4.679.62 2.936 2.363 5.787 5.112 7.165 1.556.804 3.357.666 5.05.672 10.208.024 20.416.016 30.623-.002 1.251-.02 2.527.109 3.753-.218 1.6-.386 2.922-1.493 3.926-2.753 2.966-3.836 3.232-9.492.656-13.596-1.293-2.104-3.495-3.892-6.066-3.92-7.49.007-14.98-.03-22.468.015-1.889-.071-3.702 1.081-4.594 2.714-.679 1.183-.79 2.583-.743 3.918-.01 1.482.473 2.997 1.492 4.097.945 1.02 2.306 1.681 3.712 1.675 5.614-.002 11.23.005 16.845 0 1.044.045 1.93-.835 2.088-1.828.266-1.219-.659-2.635-1.958-2.659-5.565-.012-11.13.008-16.695-.01-.815.031-1.343-.806-1.37-1.54-.094-.863.516-1.94 1.487-1.874 6.821-.005 13.643.017 20.464.008 1.022-.005 2.106.064 2.996.616 1.054.612 1.82 1.661 2.138 2.83.404 1.53.403 3.171-.05 4.691-.428 1.447-1.602 2.678-3.069 3.09-1.098.29-2.24.169-3.36.193-3.563.025-7.126-.065-10.688 0-6.82-.067-13.64.004-20.46 0-1.212-.01-2.467-.41-3.319-1.299-1.025-1.053-1.452-2.552-1.49-3.99-.02-2.846.011-5.692-.009-8.538-.002-1.288-1.343-2.416-2.62-2.068m-51.21-.209c-.819 7.928-1.656 15.855-2.45 23.785-.959-2.112-1.801-4.273-2.724-6.401a1.581 1.581 0 0 0-1.417-.957c-2.368-.006-4.736.053-7.102-.008-.555-.386-1.07-.872-1.749-1.044-1.16-.351-2.484-.098-3.421.672A3.717 3.717 0 0 0 .004 21.24c.047 1.183.697 2.328 1.705 2.957a3.73 3.73 0 0 0 3.348.34c.789-.293 1.436-.88 1.882-1.585 1.689.012 3.378-.044 5.065.03 1.62 3.895 3.269 7.78 4.905 11.669.404.973 1.593 1.538 2.606 1.24.725-.207 1.339-.79 1.554-1.514.086-.326.1-.665.139-.997.56-5.387 1.108-10.775 1.675-16.161.149-1.422.24-2.851.478-4.263a29464.67 29464.67 0 0 0 9.753 35.385c.202.826.968 1.358 1.736 1.616 1.327.271 2.7-.985 2.636-2.326-.021-9.955-.077-19.91-.05-29.866.005-2.696-.04-5.392.07-8.086.063-.555.046-1.228.519-1.616.493-.318 1.06.052 1.503.292 2.084 1.225 4.067 2.613 6.109 3.908 4.881 3.176 9.763 6.352 14.648 9.521.297.193.59.397.905.561 1.318.679 3.016.591 4.225-.282.933-.664 1.535-1.716 1.774-2.823.178-.748.1-1.52.106-2.281-.003-4.087.003-8.174-.003-12.26.01-1.15-.978-2.283-2.166-2.254-1.125-.006-2.073 1.031-2.095 2.128-.017 2.53.003 5.06-.01 7.591-.007 1.327.054 2.66-.111 3.98-.067.41-.156.917-.578 1.11-.459.18-.923-.107-1.317-.317-2.036-1.192-3.974-2.54-5.96-3.808-4.858-3.154-9.711-6.313-14.567-9.469-.63-.408-1.25-.868-1.99-1.057-1.353-.391-2.91-.019-3.906.984-.914.865-1.406 2.128-1.376 3.378.03 1.731-.093 3.462.021 5.19-.073 4.622.056 9.248.028 13.872-.023 2.341.048 4.685-.023 7.026-2.914-10.416-5.75-20.853-8.64-31.276C24.333.91 23.529.19 22.599.143 21.441.027 20.323 1 20.243 2.152"/>
        <path d="M20.243 2.152c.08-1.15 1.198-2.125 2.355-2.01.93.047 1.733.767 2.005 1.635 2.889 10.423 5.725 20.86 8.64 31.276.07-2.341 0-4.685.022-7.026.028-4.624-.101-9.25-.028-13.872-.114-1.728.008-3.459-.021-5.19-.03-1.25.462-2.513 1.376-3.378.996-1.003 2.553-1.375 3.906-.984.74.189 1.36.649 1.99 1.057 4.856 3.156 9.71 6.315 14.567 9.47 1.986 1.267 3.924 2.615 5.96 3.807.394.21.858.498 1.317.318.422-.194.51-.702.578-1.111.165-1.32.104-2.653.112-3.98.012-2.53-.008-5.061.01-7.59.02-1.098.969-2.135 2.094-2.129 1.188-.029 2.176 1.104 2.166 2.254.006 4.086 0 8.173.003 12.26-.007.761.072 1.533-.106 2.281-.239 1.107-.84 2.159-1.774 2.823-1.209.873-2.907.961-4.225.282-.315-.164-.608-.368-.905-.561a13085 13085 0 0 1-14.648-9.521c-2.042-1.295-4.025-2.683-6.11-3.908-.442-.24-1.009-.61-1.502-.292-.473.388-.456 1.061-.519 1.616-.11 2.694-.065 5.39-.07 8.086-.027 9.956.029 19.911.05 29.866.064 1.34-1.309 2.597-2.636 2.326-.768-.258-1.534-.79-1.736-1.616a29464.67 29464.67 0 0 1-9.753-35.385c-.237 1.412-.33 2.841-.478 4.263-.567 5.386-1.115 10.774-1.675 16.161-.039.332-.053.67-.14.997-.214.724-.828 1.307-1.553 1.514-1.013.298-2.202-.267-2.606-1.24-1.636-3.89-3.285-7.774-4.905-11.67-1.687-.073-3.376-.017-5.065-.029-.446.704-1.093 1.292-1.882 1.585a3.73 3.73 0 0 1-3.348-.34C.7 23.568.05 22.423.004 21.24a3.717 3.717 0 0 1 1.375-3.041c.937-.77 2.262-1.023 3.421-.672.68.172 1.194.658 1.749 1.044 2.366.061 4.734.002 7.102.008a1.581 1.581 0 0 1 1.417.957c.923 2.128 1.765 4.29 2.724 6.401.794-7.93 1.631-15.857 2.45-23.785M101.672 25.693c1.783-.192 3.578 1.027 4.049 2.752.404 1.312.017 2.82-.956 3.787-.84.864-2.095 1.281-3.288 1.12-1.91-.24-3.448-2.073-3.318-3.997.05-1.87 1.64-3.535 3.513-3.662M71.452 2.361c1.277-.348 2.618.78 2.62 2.068.02 2.846-.012 5.692.01 8.538.037 1.438.464 2.937 1.49 3.99.85.888 2.106 1.288 3.318 1.299 6.82.004 13.64-.067 20.46 0 3.562-.065 7.125.025 10.688 0 1.12-.024 2.262.097 3.36-.193 1.467-.412 2.64-1.643 3.07-3.09.452-1.52.453-3.161.05-4.692-.319-1.168-1.085-2.217-2.139-2.829-.89-.552-1.974-.621-2.996-.616-6.821.01-13.643-.013-20.464-.008-.97-.067-1.58 1.01-1.487 1.875.027.733.555 1.57 1.37 1.54 5.565.017 11.13-.003 16.694.009 1.3.024 2.225 1.44 1.96 2.659-.159.993-1.045 1.873-2.09 1.828-5.615.005-11.23-.002-16.844 0-1.406.006-2.767-.655-3.712-1.675-1.019-1.1-1.501-2.615-1.492-4.097-.047-1.335.064-2.735.743-3.918.892-1.633 2.705-2.785 4.594-2.714 7.489-.044 14.978-.008 22.467-.015 2.572.028 4.774 1.816 6.067 3.92 2.576 4.104 2.31 9.76-.655 13.596-1.005 1.26-2.327 2.367-3.927 2.753-1.226.327-2.502.198-3.753.218-10.207.018-20.415.026-30.622.002-1.694-.006-3.495.132-5.051-.672-2.75-1.378-4.493-4.229-5.112-7.165-.357-1.536-.24-3.117-.256-4.679V4.557c-.03-.984.653-1.981 1.639-2.196"/>
    </g>
</svg>
