<svg xmlns="http://www.w3.org/2000/svg" width="34" height="40" viewBox="0 0 34 40">
    <path fill="#0D74B7" fill-rule="nonzero" d="M33.91 34.917c-.179-.845-1.02-1.388-1.88-1.212a1.563 1.563 0 0 0-1.232 1.847c.07.33-.015.671-.234.935-.12.145-.384.388-.81.388H18.589v-4.503l4.62-6.427a14.012 14.012 0 0 1 4.437 3.36 1.608 1.608 0 0 0 2.242.157 1.545 1.545 0 0 0 .16-2.204 17.23 17.23 0 0 0-7.169-4.84c1.99-1.65 3.256-4.118 3.256-6.871a8.84 8.84 0 0 0-.437-2.752c.278-.288.437-.673.437-1.076 0-6.897-.801-10.366-.835-10.51A1.583 1.583 0 0 0 23.752 0H10.248c-.745 0-1.39.509-1.551 1.223-.034.15-.833 3.761-.833 10.496 0 .404.16.789.439 1.077a8.855 8.855 0 0 0-.439 2.75c0 2.758 1.27 5.228 3.263 6.877a17.307 17.307 0 0 0-5.094 2.857C2.998 27.742.887 31.177.091 34.95a4.139 4.139 0 0 0 .868 3.512A4.249 4.249 0 0 0 4.246 40h25.508a4.238 4.238 0 0 0 3.275-1.54 4.178 4.178 0 0 0 .88-3.543zM16.997 29L14 24.368c.97-.241 1.974-.368 2.998-.368 1.02 0 2.026.124 3.002.363L16.998 29zM11.526 3h10.952c.188 1.321.442 3.657.522 7a28.51 28.51 0 0 0-6.161-.689A26.15 26.15 0 0 0 11 9.967c.083-3.28.338-5.63.526-6.967zM11 15.275c0-.967.254-1.91.736-2.749 3.393-.712 6.927-.701 10.547.034.47.83.717 1.757.717 2.715C23 18.432 20.308 21 17 21s-6-2.568-6-5.725zM4.241 36.612a1.082 1.082 0 0 1-.217-.91A14.008 14.008 0 0 1 11.478 26L16 32.462V37H5.049c-.43 0-.69-.244-.808-.388zM26.333 32c.92 0 1.667.671 1.667 1.5s-.746 1.5-1.667 1.5h-2.666c-.92 0-1.667-.671-1.667-1.5s.746-1.5 1.667-1.5h2.666z"/>
</svg>
