<?xml version="1.0" encoding="utf-8"?>
<!-- Generator: Adobe Illustrator 23.0.3, SVG Export Plug-In . SVG Version: 6.00 Build 0)  -->
<svg version="1.1" id="google-store" xmlns="http://www.w3.org/2000/svg" xmlns:xlink="http://www.w3.org/1999/xlink" x="0px"
	 y="0px" viewBox="0 0 155.7 45" style="enable-background:new 0 0 155.7 45;" xml:space="preserve">
<style type="text/css">
	.st0{fill:#FFFFFF;stroke:#FFFFFF;stroke-width:0.185;stroke-miterlimit:10;}
	.st1{fill:#FFFFFF;}
	.st2{fill:url(#Path_75_1_);}
	.st3{fill:url(#Path_76_1_);}
	.st4{fill:url(#Path_77_1_);}
	.st5{fill:url(#Path_78_1_);}
	.st6{opacity:0.2;enable-background:new    ;}
	.st7{opacity:0.12;enable-background:new    ;}
	.st8{opacity:0.25;fill:#FFFFFF;enable-background:new    ;}
</style>
<path id="Path_66" d="M155.7,40.5c0,2.5-2,4.5-4.5,4.5H4.5C2,45,0,43,0,40.5v-36C0,2,2,0,4.5,0h146.7c2.5,0,4.5,2,4.5,4.5
	c0,0,0,0,0,0V40.5z"/>
<g id="Group_11" transform="translate(12.649 8.628)">
	<g id="Group_8" transform="translate(35.302)">
		<path id="Path_67" class="st0" d="M6.8,3.8c0,0.8-0.3,1.6-0.8,2.3c-0.6,0.7-1.5,1-2.5,1C1.6,7.1,0,5.5,0,3.6c0,0,0-0.1,0-0.1
			C0,1.6,1.5,0,3.4,0c0,0,0.1,0,0.1,0C4,0,4.5,0.1,4.9,0.3C5.3,0.4,5.7,0.7,5.9,1L5.4,1.6C4.9,1.1,4.2,0.8,3.5,0.8
			C2.1,0.8,0.9,2,0.9,3.4c0,0,0,0.1,0,0.1C0.9,5,2,6.2,3.5,6.2c0.7,0,1.4-0.3,1.9-0.8C5.7,5.1,5.9,4.6,6,4.1H3.5V3.3h3.3
			C6.8,3.5,6.8,3.6,6.8,3.8z"/>
		<path id="Path_68" class="st0" d="M12,1H8.9v2.1h2.8v0.8H8.9v2.1H12v0.8H8.1V0.2H12V1z"/>
		<path id="Path_69" class="st0" d="M15.7,6.9h-0.9V1h-1.9V0.2h4.6V1h-1.9V6.9L15.7,6.9z"/>
		<path id="Path_70" class="st0" d="M20.9,6.9V0.2h0.9v6.8L20.9,6.9z"/>
		<path id="Path_71" class="st0" d="M25.6,6.9h-0.9V1h-1.9V0.2h4.6V1h-1.9V6.9z"/>
		<path id="Path_72" class="st0" d="M36.3,6c-1.4,1.4-3.6,1.4-4.9,0c-0.7-0.7-1-1.6-1-2.5c0-0.9,0.3-1.8,1-2.5
			c1.4-1.4,3.6-1.4,4.9,0c0,0,0,0,0,0c0.7,0.7,1,1.6,1,2.5C37.3,4.5,36.9,5.4,36.3,6z M32,5.5c1,1,2.7,1,3.7,0
			c0.5-0.5,0.8-1.2,0.8-1.9c0-0.7-0.2-1.4-0.8-1.9c-1-1-2.7-1-3.7,0c-0.5,0.5-0.8,1.2-0.7,1.9C31.2,4.2,31.5,4.9,32,5.5z"/>
		<path id="Path_73" class="st0" d="M38.5,6.9V0.2h1.1l3.3,5.3h0l0-1.3v-4h0.9v6.8h-0.9l-3.4-5.5h0l0,1.3v4.2L38.5,6.9z"/>
	</g>
	<path id="Path_74" class="st1" d="M65.4,16.7c-2.6,0-4.8,2.2-4.8,4.8s2.2,4.8,4.8,4.8c2.6,0,4.8-2.1,4.8-4.8c0-2.6-2-4.7-4.6-4.8
		C65.5,16.7,65.5,16.7,65.4,16.7z M65.4,24.4c-1.5,0-2.7-1.3-2.7-2.8c0,0,0,0,0-0.1c-0.1-1.5,1-2.8,2.5-2.9c1.5-0.1,2.8,1,2.9,2.5
		c0,0.1,0,0.3,0,0.4C68.2,23.1,67,24.4,65.4,24.4C65.5,24.4,65.5,24.4,65.4,24.4L65.4,24.4z M55,16.7c-2.6,0-4.8,2.2-4.8,4.8
		c0,2.6,2.2,4.8,4.8,4.8c2.6,0,4.8-2.1,4.8-4.8c0-2.6-2-4.7-4.6-4.8C55.1,16.7,55,16.7,55,16.7z M55,24.4c-1.5,0-2.7-1.3-2.7-2.8
		c0,0,0,0,0-0.1c-0.1-1.5,1-2.8,2.5-2.9c1.5-0.1,2.8,1,2.9,2.5c0,0.1,0,0.3,0,0.4C57.7,23.1,56.6,24.4,55,24.4
		C55,24.4,55,24.4,55,24.4L55,24.4z M42.5,18.2v2h4.9c-0.1,1-0.5,1.9-1.1,2.6c-1,1-2.3,1.5-3.8,1.5c-3,0-5.4-2.4-5.4-5.4
		c0-3,2.4-5.4,5.4-5.4c1.4,0,2.7,0.5,3.7,1.5l1.4-1.4c-1.4-1.3-3.2-2.1-5.1-2c-4.1-0.1-7.5,3.2-7.6,7.3s3.2,7.5,7.3,7.6
		c0.1,0,0.2,0,0.2,0c1.9,0.1,3.8-0.7,5.2-2.1c1.2-1.3,1.8-3,1.8-4.7c0-0.4,0-0.9-0.1-1.3L42.5,18.2z M93.5,19.8
		c-0.6-1.8-2.2-3-4.1-3c-2.5,0-4.5,2.1-4.5,4.6c0,0.1,0,0.1,0,0.2c-0.1,2.6,2,4.7,4.6,4.8c0.1,0,0.1,0,0.2,0c1.6,0,3.1-0.8,4-2.1
		L92,23.1c-0.5,0.8-1.4,1.3-2.4,1.3c-1,0-1.9-0.5-2.3-1.5l6.4-2.6L93.5,19.8z M86.9,21.4c-0.1-1.4,1-2.7,2.4-2.8c0,0,0,0,0.1,0
		c0.7,0,1.4,0.3,1.8,1L86.9,21.4z M81.7,26h2.1V12h-2.1V26z M78.3,17.8L78.3,17.8c-0.7-0.7-1.6-1.1-2.6-1.1c-2.6,0.1-4.7,2.3-4.6,5
		c0.1,2.5,2.1,4.5,4.6,4.6c1,0,1.9-0.4,2.5-1.1h0.1v0.7c0,1.8-1,2.8-2.6,2.8c-1.1,0-2-0.7-2.4-1.7l-1.8,0.8c0.7,1.7,2.4,2.8,4.2,2.8
		c2.5,0,4.5-1.5,4.5-5V17h-2L78.3,17.8z M75.9,24.4c-1.5,0-2.7-1.3-2.7-2.8c0,0,0,0,0-0.1c-0.1-1.5,1.1-2.8,2.6-2.9c0,0,0,0,0.1,0
		c1.5,0.1,2.6,1.3,2.6,2.8c0,0,0,0.1,0,0.1C78.6,23,77.5,24.3,75.9,24.4C75.9,24.4,75.9,24.4,75.9,24.4L75.9,24.4z M103.3,12h-5V26
		h2.1v-5.3h2.9c2.4,0.1,4.5-1.7,4.6-4.1s-1.7-4.5-4.1-4.6C103.6,12,103.5,12,103.3,12z M103.4,18.7h-3v-4.8h3c1.3,0,2.4,1,2.5,2.4
		C105.9,17.6,104.8,18.7,103.4,18.7C103.4,18.7,103.4,18.7,103.4,18.7z M116.3,16.7c-1.6-0.1-3,0.8-3.7,2.2l1.9,0.8
		c0.4-0.7,1.1-1.1,1.9-1c1.1-0.1,2.1,0.7,2.2,1.8v0.1c-0.7-0.4-1.4-0.5-2.2-0.5c-2,0-4.1,1.1-4.1,3.2c0.1,1.8,1.6,3.2,3.4,3.1
		c0,0,0.1,0,0.1,0c1.1,0.1,2.1-0.5,2.7-1.4h0.1V26h2v-5.4C120.6,18.1,118.7,16.7,116.3,16.7L116.3,16.7z M116.1,24.4
		c-0.7,0-1.6-0.3-1.6-1.2c0-1.1,1.2-1.5,2.2-1.5c0.7,0,1.3,0.1,1.9,0.5C118.4,23.5,117.4,24.4,116.1,24.4L116.1,24.4z M128,17
		l-2.4,6.1h-0.1L123,17h-2.3l3.7,8.5l-2.1,4.7h2.2l5.8-13.3L128,17z M109.1,26h2.1V12h-2.1V26z"/>
	<g id="Group_10" transform="translate(0 0.309)">
		
			<linearGradient id="Path_75_1_" gradientUnits="userSpaceOnUse" x1="-226.0574" y1="425.249" x2="-227.3554" y2="425.919" gradientTransform="matrix(14.545 0 0 -28.204 3150.3381 11869.7822)">
			<stop  offset="0" style="stop-color:#00A0FF"/>
			<stop  offset="7.000001e-03" style="stop-color:#00A1FF"/>
			<stop  offset="0.26" style="stop-color:#00BEFF"/>
			<stop  offset="0.512" style="stop-color:#00D2FF"/>
			<stop  offset="0.76" style="stop-color:#00DFFF"/>
			<stop  offset="1" style="stop-color:#00E3FF"/>
		</linearGradient>
		<path id="Path_75" class="st2" d="M0.5,0.4C0.2,0.9,0,1.5,0,2v24.9c0,0.6,0.2,1.1,0.5,1.6l0.1,0.1l13.9-13.9v-0.3L0.5,0.4L0.5,0.4
			z"/>
		
			<linearGradient id="Path_76_1_" gradientUnits="userSpaceOnUse" x1="-211.4045" y1="393.0938" x2="-213.7855" y2="393.0938" gradientTransform="matrix(11.425 0 0 -9.623 2442.1277 3797.2102)">
			<stop  offset="0" style="stop-color:#FFE000"/>
			<stop  offset="0.409" style="stop-color:#FFBD00"/>
			<stop  offset="0.775" style="stop-color:#FFA500"/>
			<stop  offset="1" style="stop-color:#FF9C00"/>
		</linearGradient>
		<path id="Path_76" class="st3" d="M19.2,19.3l-4.6-4.6v-0.3l4.6-4.6l0.1,0.1l5.5,3.1c1.6,0.9,1.6,2.4,0,3.2L19.2,19.3L19.2,19.3z"
			/>
		
			<linearGradient id="Path_77_1_" gradientUnits="userSpaceOnUse" x1="-243.7509" y1="438.3052" x2="-245.1139" y2="440.0742" gradientTransform="matrix(18.772 0 0 -14.4746 4130.0356 5912.2334)">
			<stop  offset="0" style="stop-color:#FF3A44"/>
			<stop  offset="1" style="stop-color:#C31162"/>
		</linearGradient>
		<path id="Path_77" class="st4" d="M19.3,19.2l-4.8-4.8l-14,14c0.7,0.6,1.6,0.6,2.3,0.1L19.3,19.2"/>
		
			<linearGradient id="Path_78_1_" gradientUnits="userSpaceOnUse" x1="-196.7991" y1="436.575" x2="-196.1901" y2="437.3661" gradientTransform="matrix(18.772 0 0 -14.4786 4130.0356 5899.4932)">
			<stop  offset="0" style="stop-color:#32A071"/>
			<stop  offset="6.800000e-02" style="stop-color:#2DA771"/>
			<stop  offset="0.476" style="stop-color:#15CF74"/>
			<stop  offset="0.801" style="stop-color:#06E775"/>
			<stop  offset="1" style="stop-color:#00F076"/>
		</linearGradient>
		<path id="Path_78" class="st5" d="M19.3,9.7L2.9,0.4C2.2-0.2,1.2-0.1,0.5,0.4l14,14L19.3,9.7z"/>
		<g id="Group_9" transform="translate(0 19.115)">
			<path id="Path_79" class="st6" d="M19.2,0L2.9,9.3c-0.7,0.5-1.6,0.5-2.3,0l0,0L0.5,9.4l0,0l0.1,0.1l0,0c0.7,0.5,1.6,0.5,2.3,0
				l16.4-9.3L19.2,0z"/>
			<path id="Path_80" class="st7" d="M0.5,9.2C0.2,8.8,0,8.2,0,7.6v0.2c0,0.6,0.2,1.1,0.5,1.6V9.2L0.5,9.2z"/>
		</g>
		<path id="Path_81" class="st7" d="M24.8,15.9l-5.6,3.2l0.1,0.1l5.5-3.1c0.7-0.3,1.1-0.9,1.2-1.6l0,0
			C25.8,15.1,25.4,15.6,24.8,15.9z"/>
		<path id="Path_82" class="st8" d="M2.9,0.5L24.8,13c0.6,0.3,1,0.8,1.2,1.5l0,0c-0.1-0.7-0.5-1.3-1.2-1.6L2.9,0.4
			C1.3-0.5,0,0.2,0,2v0.2C0,0.4,1.3-0.3,2.9,0.5z"/>
	</g>
</g>
</svg>
