<svg xmlns="http://www.w3.org/2000/svg" width="34" height="28" viewBox="0 0 34 28">
    <path fill="#0D74B7" fill-rule="nonzero" d="M32.672 7.375c-.734 0-1.328.585-1.328 1.306v4.568H15.672c0-2.879-2.383-5.221-5.313-5.221H5.313a5.35 5.35 0 0 0-2.657.702V1.305C2.656.585 2.062 0 1.328 0 .595 0 0 .584 0 1.305v25.39C0 27.415.595 28 1.328 28c.734 0 1.328-.584 1.328-1.305v-4.308h20.719c.734 0 1.328-.584 1.328-1.305s-.594-1.306-1.328-1.306H2.656V15.86h28.688v3.786h-1.328c-.734 0-1.328.584-1.328 1.305s.594 1.305 1.328 1.305h1.328v4.439c0 .72.594 1.305 1.328 1.305.733 0 1.328-.584 1.328-1.305V8.68c0-.721-.595-1.306-1.328-1.306zM5.312 10.64h5.047c1.465 0 2.657 1.171 2.657 2.61H2.656c0-1.439 1.192-2.61 2.656-2.61z"/>
</svg>
