<svg xmlns="http://www.w3.org/2000/svg" xmlns:xlink="http://www.w3.org/1999/xlink" width="320" height="363" viewBox="0 0 320 363">
    <defs>
        <path id="a" d="M.23.15h269.382v323.117H.229z"/>
    </defs>
    <g fill="none" fill-rule="evenodd">
        <g transform="translate(50.345 25.418)">
            <mask id="b" fill="#fff">
                <use xlink:href="#a"/>
            </mask>
            <path fill="#F6F6F6" d="M268.109 210.46c-5.203 26.955-17.649 47.096-34.823 62.507-6.208 5.622-13.066 10.59-20.397 15.023-25.57 15.56-57.26 24.99-90.25 32.577-1.863.417-3.754.863-5.647 1.28a56.402 56.402 0 0 1-14.958 1.368c-52.47-2.231-88.21-80.505-99.206-162.884C-6.987 86.997 9.242 3.933 81.903.244c27.285-1.368 59.122 12.317 88.743 34.333a241.406 241.406 0 0 1 6.356 4.879v.03h.03c.442.327.886.683 1.3 1.04 55.102 44.18 100.182 115.968 89.777 169.935" mask="url(#b)"/>
        </g>
        <path fill="#F6F6F6" d="M60.91 304.95c4.121 8.359 5.628 18.937-2.632 22.342-9.224 3.804-23.926-2.345-28.203-16.296-2.734-8.916-1.794-21.36 5.76-26.144 6.465-4.094 20.022 9.847 25.075 20.098M286.672 117.445c-3.689-3.238-6.636-8.054-3.525-11.298 3.473-3.622 11.603-3.498 16.553 2.41 3.163 3.777 5.371 9.967 2.882 13.74-2.131 3.229-11.385-.88-15.91-4.852"/>
        <path fill="#D8D5DB" d="M94.526 69.329a.369.369 0 0 1-.366-.333.37.37 0 0 1 .326-.41 75.396 75.396 0 0 1 5.935-.395h.01a.372.372 0 0 1 .012.744c-1.988.055-3.966.186-5.876.392-.015.002-.029.002-.04.002zm17.725.106c-.01 0-.026 0-.04-.002a90.79 90.79 0 0 0-5.875-.447.373.373 0 0 1 .015-.744h.014c1.948.085 3.943.237 5.927.45a.37.37 0 0 1 .325.41.368.368 0 0 1-.366.333zm11.684 1.917a.378.378 0 0 1-.079-.008 116.62 116.62 0 0 0-5.8-1.113.37.37 0 0 1-.302-.429.376.376 0 0 1 .424-.307c1.906.316 3.868.694 5.834 1.122a.372.372 0 0 1-.077.735zm-41.022.22a.367.367 0 0 1-.355-.275.368.368 0 0 1 .257-.456c1.87-.515 3.819-.972 5.785-1.36a.36.36 0 0 1 .435.294.373.373 0 0 1-.291.436c-1.951.384-3.88.838-5.733 1.347a.38.38 0 0 1-.098.013zM135.38 74.4a.36.36 0 0 1-.11-.018 139.947 139.947 0 0 0-5.675-1.647.373.373 0 0 1-.262-.454.375.375 0 0 1 .453-.263c1.885.502 3.802 1.058 5.704 1.656a.37.37 0 0 1 .243.465.367.367 0 0 1-.353.261zm-63.576 1.226a.367.367 0 0 1-.335-.216.371.371 0 0 1 .179-.493 70.194 70.194 0 0 1 5.496-2.273c.2-.072.405.032.474.223a.374.374 0 0 1-.22.477 68.13 68.13 0 0 0-5.438 2.247.371.371 0 0 1-.156.035zm74.749 2.741a.366.366 0 0 1-.136-.026 170.244 170.244 0 0 0-5.537-2.083.375.375 0 0 1-.225-.474.373.373 0 0 1 .473-.227c1.847.658 3.718 1.362 5.56 2.092a.372.372 0 0 1-.135.718zM61.58 81.583a.372.372 0 0 1-.214-.675 63.677 63.677 0 0 1 5.002-3.235c.17-.102.401-.044.505.137a.374.374 0 0 1-.136.508 62.507 62.507 0 0 0-4.944 3.197.359.359 0 0 1-.213.068zm95.847 1.518a.376.376 0 0 1-.159-.035 179.681 179.681 0 0 0-5.386-2.449.37.37 0 0 1-.19-.49.37.37 0 0 1 .484-.193 192.08 192.08 0 0 1 5.41 2.459.374.374 0 0 1-.159.708zM168 88.482a.357.357 0 0 1-.177-.045 215.62 215.62 0 0 0-5.238-2.761.37.37 0 0 1-.162-.5.364.364 0 0 1 .496-.163c1.733.882 3.502 1.814 5.257 2.77.179.098.245.325.15.504a.377.377 0 0 1-.326.195zm-115.352.874a.377.377 0 0 1-.257-.102.374.374 0 0 1-.008-.527 62.534 62.534 0 0 1 4.307-4.122.368.368 0 0 1 .523.04.375.375 0 0 1-.038.523 62.4 62.4 0 0 0-4.261 4.074.359.359 0 0 1-.266.114zm125.623 5.077a.378.378 0 0 1-.194-.053 235.67 235.67 0 0 0-5.089-3.038.375.375 0 0 1-.136-.508.37.37 0 0 1 .506-.137c1.714.995 3.431 2.02 5.107 3.046a.374.374 0 0 1-.194.69zM45.265 98.65a.37.37 0 0 1-.305-.578 68.865 68.865 0 0 1 3.507-4.836.364.364 0 0 1 .52-.058.375.375 0 0 1 .057.523 69.191 69.191 0 0 0-3.472 4.783.366.366 0 0 1-.307.166zm142.964 2.245a.364.364 0 0 1-.207-.065 251.462 251.462 0 0 0-4.934-3.285.373.373 0 0 1-.113-.515.369.369 0 0 1 .511-.11 253.168 253.168 0 0 1 4.951 3.295.375.375 0 0 1 .098.517.37.37 0 0 1-.306.163zm9.648 6.921a.372.372 0 0 1-.222-.073 240.886 240.886 0 0 0-4.778-3.51.375.375 0 0 1-.086-.52.37.37 0 0 1 .514-.088 268.365 268.365 0 0 1 4.795 3.521.372.372 0 1 1-.223.67zm-158.391 1.218a.372.372 0 0 1-.334-.53 82.654 82.654 0 0 1 2.704-5.327c.1-.18.329-.249.502-.142.18.098.243.324.144.505a81.69 81.69 0 0 0-2.681 5.279.372.372 0 0 1-.335.215zm167.698 6.123a.365.365 0 0 1-.233-.084 286.537 286.537 0 0 0-4.61-3.72.37.37 0 1 1 .456-.584 259.753 259.753 0 0 1 4.621 3.728.372.372 0 0 1-.234.66zM35.2 120.13a.374.374 0 0 1-.352-.484 97.045 97.045 0 0 1 1.98-5.641.37.37 0 1 1 .687.27 97.806 97.806 0 0 0-1.964 5.597.369.369 0 0 1-.351.258zm180.986 2.792a.368.368 0 0 1-.246-.094 260.387 260.387 0 0 0-4.454-3.932.373.373 0 0 1-.041-.524.366.366 0 0 1 .52-.04c1.499 1.291 3 2.616 4.466 3.941a.374.374 0 0 1-.245.649zm8.663 8.175a.369.369 0 0 1-.26-.106 255.608 255.608 0 0 0-4.284-4.134.374.374 0 0 1-.015-.526.374.374 0 0 1 .523-.017 287.189 287.189 0 0 1 4.295 4.146.373.373 0 0 1-.259.637zm-192.632.56a.372.372 0 0 1-.36-.448 123.94 123.94 0 0 1 1.341-5.819.36.36 0 0 1 .451-.267c.197.05.317.254.265.453-.488 1.905-.938 3.85-1.336 5.785a.368.368 0 0 1-.361.296zm200.896 7.985a.365.365 0 0 1-.27-.12 262.234 262.234 0 0 0-4.08-4.312.372.372 0 0 1 .532-.52 264.254 264.254 0 0 1 4.09 4.328.371.371 0 0 1-.272.624zm-202.77 3.78l-.043-.001a.371.371 0 0 1-.323-.413c.234-2.009.505-4 .81-5.919a.369.369 0 1 1 .73.117 143.76 143.76 0 0 0-.806 5.89.37.37 0 0 1-.367.327zm210.626 5.148a.37.37 0 0 1-.283-.133 252.825 252.825 0 0 0-3.869-4.504.374.374 0 0 1 .032-.525.37.37 0 0 1 .523.031 261.169 261.169 0 0 1 3.88 4.52.37.37 0 1 1-.283.611zm-211.555 6.733h-.015a.373.373 0 0 1-.355-.388c.084-1.997.206-4.002.355-5.961.018-.204.188-.38.4-.342a.373.373 0 0 1 .34.4c-.153 1.95-.272 3.947-.355 5.935a.373.373 0 0 1-.37.356zm218.948 2.583a.364.364 0 0 1-.294-.147 241.02 241.02 0 0 0-3.635-4.698.376.376 0 0 1 .058-.522.368.368 0 0 1 .519.057 227.866 227.866 0 0 1 3.646 4.713.372.372 0 0 1-.294.597zM29.3 167.222a.369.369 0 0 1-.37-.365 228.25 228.25 0 0 1-.047-4.17c0-.603.004-1.203.01-1.8a.372.372 0 0 1 .369-.37h.003a.37.37 0 0 1 .367.375c-.006.598-.01 1.195-.01 1.793.004 1.38.018 2.766.047 4.158a.372.372 0 0 1-.36.38h-.01zm225.945.369a.364.364 0 0 1-.306-.166 199.584 199.584 0 0 0-3.365-4.89.372.372 0 0 1 .086-.52.36.36 0 0 1 .514.086 188.73 188.73 0 0 1 3.377 4.912.371.371 0 0 1-.306.578zm6.287 10.103a.374.374 0 0 1-.32-.184 181.417 181.417 0 0 0-3.054-5.092.371.371 0 0 1 .116-.513.366.366 0 0 1 .508.117 178.949 178.949 0 0 1 3.07 5.113.374.374 0 0 1-.32.559zm-231.644 1.435a.374.374 0 0 1-.37-.342c-.152-2.017-.279-4.023-.377-5.96a.374.374 0 0 1 .352-.392.366.366 0 0 1 .387.354c.095 1.931.222 3.93.378 5.94a.374.374 0 0 1-.34.399l-.03.001zm237.237 9.07a.37.37 0 0 1-.333-.209 151.196 151.196 0 0 0-2.693-5.29.375.375 0 0 1 .15-.504.368.368 0 0 1 .503.152c.95 1.781 1.859 3.57 2.704 5.317a.371.371 0 0 1-.331.535zm-236.018 2.79a.368.368 0 0 1-.366-.326 254.81 254.81 0 0 1-.685-5.928.37.37 0 0 1 .329-.41c.182-.031.381.13.404.332.205 1.962.436 3.95.684 5.913a.371.371 0 0 1-.366.419zm240.78 8.12a.369.369 0 0 1-.343-.235 135.787 135.787 0 0 0-2.26-5.49.372.372 0 0 1 .188-.49.365.365 0 0 1 .487.19c.806 1.84 1.57 3.697 2.273 5.52a.373.373 0 0 1-.345.506zm-238.993 3.664a.37.37 0 0 1-.364-.307 267.153 267.153 0 0 1-.965-5.89.374.374 0 0 1 .312-.424c.2-.033.39.11.422.31.294 1.955.617 3.931.958 5.873a.371.371 0 0 1-.363.438zm242.747 7.635a.367.367 0 0 1-.355-.272 116.4 116.4 0 0 0-1.732-5.677.369.369 0 0 1 .23-.47.36.36 0 0 1 .468.236c.638 1.91 1.224 3.832 1.744 5.71a.375.375 0 0 1-.355.473zm-240.436 4.054a.37.37 0 0 1-.36-.291 278.92 278.92 0 0 1-1.221-5.84.375.375 0 0 1 .291-.438c.214-.04.393.09.437.293.375 1.906.782 3.865 1.215 5.824a.372.372 0 0 1-.362.452zm242.95 7.576a.368.368 0 0 1-.364-.316 98.66 98.66 0 0 0-1.086-5.827.37.37 0 1 1 .722-.16 99.19 99.19 0 0 1 1.091 5.874.37.37 0 0 1-.363.429zM38.086 226.34a.369.369 0 0 1-.358-.277l-.078-.3a307.513 307.513 0 0 1-1.464-5.78.373.373 0 0 1 .272-.451.371.371 0 0 1 .444.273c.47 1.934.959 3.855 1.464 5.766l.078.303a.372.372 0 0 1-.358.466zm241.09 7.556a.37.37 0 0 1-.37-.366 82.067 82.067 0 0 0-.302-5.923.37.37 0 0 1 .337-.402.367.367 0 0 1 .401.338c.17 1.992.274 4.002.303 5.975a.37.37 0 0 1-.363.378h-.006zM41.32 237.803a.373.373 0 0 1-.356-.264c-.565-1.902-1.12-3.81-1.657-5.722a.372.372 0 0 1 .254-.46.362.362 0 0 1 .456.256c.537 1.91 1.091 3.816 1.657 5.711a.374.374 0 0 1-.354.48zm237.213 7.978c-.016 0-.027 0-.041-.002a.37.37 0 0 1-.326-.41c.21-1.93.38-3.919.499-5.914a.372.372 0 0 1 .37-.35h.022c.203.015.358.19.347.397a122.731 122.731 0 0 1-.505 5.948.369.369 0 0 1-.366.331zm-233.634 3.363a.37.37 0 0 1-.35-.252 336.243 336.243 0 0 1-1.838-5.66.375.375 0 0 1 .24-.468.376.376 0 0 1 .464.242 382.57 382.57 0 0 0 1.833 5.647.373.373 0 0 1-.35.491zm231.74 8.38a.372.372 0 0 1-.36-.45c.417-1.956.787-3.917 1.096-5.827a.37.37 0 0 1 .424-.309c.2.034.338.225.303.427a117.356 117.356 0 0 1-1.102 5.867.37.37 0 0 1-.362.292zM48.85 260.385a.371.371 0 0 1-.347-.242 394.367 394.367 0 0 1-2.023-5.61.375.375 0 0 1 .225-.475.371.371 0 0 1 .474.227c.658 1.878 1.33 3.743 2.017 5.599a.37.37 0 0 1-.346.501zm224.606 8.598a.373.373 0 0 1-.349-.492 102.01 102.01 0 0 0 1.747-5.662.369.369 0 1 1 .71.2c-.525 1.9-1.117 3.819-1.759 5.703a.37.37 0 0 1-.35.25zm-220.282 2.5a.37.37 0 0 1-.34-.23 318.575 318.575 0 0 1-2.214-5.536.37.37 0 1 1 .687-.272c.725 1.855 1.46 3.698 2.208 5.524a.375.375 0 0 1-.2.487.382.382 0 0 1-.14.028zm215.776 8.501a.373.373 0 0 1-.331-.534 99.143 99.143 0 0 0 2.406-5.412.371.371 0 0 1 .482-.201.374.374 0 0 1 .2.487 99.382 99.382 0 0 1-2.426 5.451.367.367 0 0 1-.331.209zm-211.052 2.433a.369.369 0 0 1-.336-.216c-.82-1.8-1.625-3.618-2.416-5.451a.37.37 0 0 1 .191-.49.368.368 0 0 1 .484.193c.791 1.83 1.597 3.643 2.411 5.437a.371.371 0 0 1-.334.527zm205.255 7.947a.346.346 0 0 1-.199-.06.372.372 0 0 1-.112-.514 101.278 101.278 0 0 0 3.045-5.09.372.372 0 0 1 .647.367 104.751 104.751 0 0 1-3.07 5.127.372.372 0 0 1-.311.17zm-200.106 2.79a.367.367 0 0 1-.328-.202c-.905-1.79-1.79-3.589-2.634-5.35a.373.373 0 0 1 .17-.497.369.369 0 0 1 .494.174c.843 1.757 1.727 3.55 2.627 5.336a.374.374 0 0 1-.16.5.374.374 0 0 1-.17.04zm193.14 6.828a.372.372 0 0 1-.286-.607 108.526 108.526 0 0 0 3.604-4.691.366.366 0 0 1 .513-.082.37.37 0 0 1 .08.52 107.62 107.62 0 0 1-3.625 4.723.365.365 0 0 1-.286.137zm-187.53 3.675a.368.368 0 0 1-.321-.19 266.08 266.08 0 0 1-2.873-5.225.374.374 0 0 1 .15-.502.37.37 0 0 1 .503.151c.947 1.77 1.91 3.525 2.86 5.21a.371.371 0 0 1-.32.556zm179.571 5.123a.373.373 0 0 1-.26-.636 118.188 118.188 0 0 0 4.08-4.285.368.368 0 0 1 .522-.025c.15.138.162.373.026.524a119.192 119.192 0 0 1-4.108 4.315.369.369 0 0 1-.26.107zm-173.454 5.083a.373.373 0 0 1-.312-.171 209.625 209.625 0 0 1-3.132-5.073.37.37 0 1 1 .635-.384c1.019 1.707 2.07 3.408 3.12 5.055a.372.372 0 0 1-.311.573zm164.684 2.914a.377.377 0 0 1-.286-.135.376.376 0 0 1 .05-.523 140.93 140.93 0 0 0 4.462-3.888.367.367 0 0 1 .523.025.376.376 0 0 1-.026.526 143.903 143.903 0 0 1-4.487 3.91.363.363 0 0 1-.236.085zm-157.993 6.92a.365.365 0 0 1-.297-.152 182.697 182.697 0 0 1-3.43-4.875.37.37 0 0 1 .098-.515.365.365 0 0 1 .514.097 178.661 178.661 0 0 0 3.413 4.855.371.371 0 0 1-.298.59zm148.596.32a.372.372 0 0 1-.213-.675c1.631-1.164 3.23-2.35 4.754-3.522.16-.129.388-.096.52.069a.374.374 0 0 1-.069.521 168.923 168.923 0 0 1-4.778 3.54.364.364 0 0 1-.214.067zm-9.887 6.56a.367.367 0 0 1-.315-.176.375.375 0 0 1 .122-.512 213.256 213.256 0 0 0 4.986-3.196.37.37 0 1 1 .404.622 197.134 197.134 0 0 1-5.004 3.207.365.365 0 0 1-.193.055zm-131.364 2.47a.363.363 0 0 1-.28-.13 148.786 148.786 0 0 1-3.77-4.616.375.375 0 0 1 .063-.523.37.37 0 0 1 .52.06 143.28 143.28 0 0 0 3.746 4.594.372.372 0 0 1-.28.615zm121.122 3.504a.368.368 0 0 1-.324-.193.375.375 0 0 1 .148-.506 257.026 257.026 0 0 0 5.153-2.914.369.369 0 0 1 .505.136.374.374 0 0 1-.136.508 249.376 249.376 0 0 1-5.17 2.923.364.364 0 0 1-.176.046zm-113.025 5.19a.369.369 0 0 1-.257-.105c-1.38-1.343-2.78-2.779-4.163-4.265a.373.373 0 0 1 .014-.525.366.366 0 0 1 .523.017 122.557 122.557 0 0 0 4.14 4.238c.147.143.15.379.008.526a.365.365 0 0 1-.265.113zm102.503.283a.373.373 0 0 1-.162-.706 296.31 296.31 0 0 0 5.28-2.675.363.363 0 0 1 .5.16.373.373 0 0 1-.16.5c-1.75.908-3.516 1.803-5.297 2.683a.355.355 0 0 1-.161.038zm-10.731 5.06a.373.373 0 0 1-.15-.712c1.807-.817 3.6-1.641 5.38-2.481a.369.369 0 0 1 .49.179.375.375 0 0 1-.177.495 380.08 380.08 0 0 1-5.393 2.487.366.366 0 0 1-.15.032zm-82.818 2.437a.365.365 0 0 1-.222-.075 95.137 95.137 0 0 1-4.613-3.772.377.377 0 0 1-.037-.525.376.376 0 0 1 .523-.038 92.041 92.041 0 0 0 4.572 3.742.373.373 0 0 1-.223.668zm71.946 2.285a.372.372 0 0 1-.14-.714 465.98 465.98 0 0 0 5.446-2.323.374.374 0 0 1 .488.195.372.372 0 0 1-.194.488 445.23 445.23 0 0 1-5.458 2.325.339.339 0 0 1-.142.029zM115.782 356a.367.367 0 0 1-.176-.045 71.218 71.218 0 0 1-5.107-3.062.37.37 0 0 1-.106-.514.363.363 0 0 1 .51-.108 70.782 70.782 0 0 0 5.055 3.03.376.376 0 0 1 .15.504.377.377 0 0 1-.326.195zm51.064.256a.372.372 0 0 1-.135-.718 671.231 671.231 0 0 0 5.491-2.195.367.367 0 0 1 .482.205.374.374 0 0 1-.205.484 621.33 621.33 0 0 1-5.496 2.197.367.367 0 0 1-.137.027zm-11.082 4.193a.372.372 0 0 1-.112-.727 54.64 54.64 0 0 0 2.639-.925l2.904-1.113a.37.37 0 0 1 .478.215.37.37 0 0 1-.213.48l-2.91 1.112c-.883.337-1.78.652-2.673.94a.373.373 0 0 1-.113.018zm-29.107.172a.403.403 0 0 1-.107-.016 57.19 57.19 0 0 1-5.592-2.05.374.374 0 0 1-.196-.487.373.373 0 0 1 .484-.198 56.291 56.291 0 0 0 5.518 2.023c.196.06.306.267.245.465a.368.368 0 0 1-.352.263zm17.509 2.087a.372.372 0 0 1-.027-.742 47.804 47.804 0 0 0 5.826-.771.38.38 0 0 1 .433.294.373.373 0 0 1-.294.435 48.246 48.246 0 0 1-5.913.783l-.025.001zm-5.916.03h-.02a48.633 48.633 0 0 1-5.904-.715.372.372 0 0 1-.297-.433.356.356 0 0 1 .43-.3c1.934.355 3.892.592 5.812.704a.372.372 0 1 1-.02.744h-.001z"/>
        <path fill="#E3DFDF" d="M277.837 236.147c-.03.357.03.654 0 .982-.74 8.3-7.834 26.002-14.9 41.71.237 5.652.414 10.71.444 14.875.03.774.03 1.487.03 2.202 0 0-.296 0-.858.06.208 3.688.473 10.084.68 17.432-25.57 15.56-57.26 24.991-90.25 32.577-1.862.417-3.753.863-5.646 1.28a56.398 56.398 0 0 1-14.958 1.368 12.52 12.52 0 0 1-.325-3.808c.976-17.195 2.543-36.683 5.203-50.04-.591-.09-1.212-.178-1.833-.267 6.71-22.79 10.08-55.664 11.824-84.194 0 .03-.03.03-.03.03.208-3.362.385-6.635.533-9.878-4.286 4.404-7.243 7.141-7.243 7.141l-9.075-15.025c-11.203 8.152-21.786 15.351-26.96 18.683-4.286 4.047-11.587 4.642-17.322-2.945-9.282-12.227-22.378-63.547-23.915-72.264a2.257 2.257 0 0 1-.532-.535c-2.128-2.945-9.578-19.189-8.987-22.343.562-2.945 4.198-9.966 8.248-10.888a103.583 103.583 0 0 0-1.774-5.087c-1.714-4.701-3.754-9.461-.68-9.015 2.779.387 10.11 17.91 11.322 20.855.178-1.398.355-2.528.355-2.528.946-2.797 5.764-4.284 5.173-.03-.857 6.069 1.212 9.014 1.123 13.833 0 .269 0 .566-.03.982 0 .149-.059.358-.088.536 0 .149 0 .268-.03.387 0 .089-.029.148-.029.208-.502 2.945-2.157 7.735-3.784 10.442 0 .03.03.03.03.06 3.222 10.59 18.003 38.289 26.634 53.58 5.262-4.403 11.914-9.639 18.623-14.785l-.59-.983s35.06-32.993 53.21-35.492c.266-1.279.443-2.677.62-4.135.178-1.904.296-3.927.355-6.01-13.332-.148-14.574-10.026-13.244-22.58l-2.01-.417 3.164-8.062c.03-.208.059-.416.089-.595-.296-.298-.503-.803-.563-1.428-.089-.982.267-1.814.798-1.844.09-.03.178.03.237.059a53.18 53.18 0 0 0 .325-2.142c.237-1.577.532-3.035.828-4.433-1.3-.327-2.365-.119-2.394-.119l-.325-1.458c.118 0 1.448-.267 3.074.12 1.153-4.463 2.778-8.242 4.7-11.306-4.257-.297-6.267-1.695-3.31-5.146 4.581-5.355 26.28-8.033 37.216-5.772 3.844.803 6.356 2.201 6.386 4.283 0 .24-.03.388-.03.596v.03h.03c1.33-.506 2.454-1.726 2.778-2.261l1.242.832c-.06.09-1.094 1.607-2.72 2.47-.148.09-.295.178-.444.238 11.589 7.556-4.965 48.552-5.024 48.702-.326 7.05-.532 14.012-.502 18.92 10.522 1.22 17.174 4.314 21.579 9.163 11.794 9.55 29.974 48.732 29.974 48.732l-7.419 1.963c5.291 17.077 9.784 34.213 11.085 39.955.089.893.03 1.726-.088 2.529" opacity=".4"/>
        <path fill="#1272AF" fill-opacity=".386" d="M44.94 14.75h158.12c10.925 0 19.865 8.997 19.865 19.993V150.21c0 10.996-8.94 19.993-19.866 19.993H44.941c-10.927 0-19.866-8.997-19.866-19.993V34.743c0-10.996 8.94-19.992 19.866-19.992" opacity=".5"/>
        <path fill="#1272AF" fill-opacity=".3" d="M23.736 1.175C11.056 1.175.739 11.555.739 24.316v135.795c0 12.761 10.318 23.142 22.997 23.142h185.957c12.679 0 22.994-10.381 22.994-23.142V24.316c0-12.76-10.315-23.14-22.994-23.14H23.736zm185.957 182.82H23.736C10.646 183.996 0 173.282 0 160.112V24.316C0 11.146 10.647.432 23.736.432h185.957c13.086 0 23.733 10.714 23.733 23.884v135.795c0 13.17-10.647 23.885-23.733 23.885z" opacity=".4"/>
        <path fill="#2D91D0" fill-opacity=".5" d="M44.769 34.856h26.409c1.824 0 3.318 1.503 3.318 3.34V57.48c0 1.836-1.494 3.34-3.318 3.34h-26.41c-1.824 0-3.318-1.504-3.318-3.34V38.195c0-1.836 1.494-3.339 3.319-3.339M88.787 34.856h26.409c1.824 0 3.318 1.503 3.318 3.34V57.48c0 1.836-1.494 3.34-3.318 3.34h-26.41c-1.824 0-3.318-1.504-3.318-3.34V38.195c0-1.836 1.494-3.339 3.319-3.339"/>
        <path fill="#232323" fill-opacity=".7" d="M132.804 34.856h26.41c1.824 0 3.317 1.503 3.317 3.34V57.48c0 1.836-1.493 3.34-3.318 3.34h-26.409c-1.825 0-3.318-1.504-3.318-3.34V38.195c0-1.836 1.493-3.339 3.318-3.339" opacity=".1"/>
        <path fill="#2D91D0" fill-opacity=".5" d="M176.822 34.856h26.41c1.824 0 3.317 1.503 3.317 3.34V57.48c0 1.836-1.493 3.34-3.318 3.34h-26.409c-1.824 0-3.318-1.504-3.318-3.34V38.195c0-1.836 1.494-3.339 3.318-3.339"/>
        <path fill="#232323" fill-opacity=".7" d="M44.769 79.496h26.409c1.824 0 3.318 1.502 3.318 3.339v19.285c0 1.836-1.494 3.339-3.318 3.339h-26.41c-1.824 0-3.318-1.503-3.318-3.34V82.836c0-1.837 1.494-3.34 3.319-3.34" opacity=".1"/>
        <path fill="#2D91D0" fill-opacity=".5" d="M88.787 79.496h26.409c1.824 0 3.318 1.502 3.318 3.339v19.285c0 1.836-1.494 3.339-3.318 3.339h-26.41c-1.824 0-3.318-1.503-3.318-3.34V82.836c0-1.837 1.494-3.34 3.319-3.34M132.804 79.496h26.41c1.824 0 3.317 1.502 3.317 3.339v19.285c0 1.836-1.493 3.339-3.318 3.339h-26.409c-1.825 0-3.318-1.503-3.318-3.34V82.836c0-1.837 1.493-3.34 3.318-3.34M176.822 79.496h26.41c1.824 0 3.317 1.502 3.317 3.339v19.285c0 1.836-1.493 3.339-3.318 3.339h-26.409c-1.824 0-3.318-1.503-3.318-3.34V82.836c0-1.837 1.494-3.34 3.318-3.34M44.769 124.134h26.409c1.824 0 3.318 1.503 3.318 3.34v19.284c0 1.837-1.494 3.34-3.318 3.34h-26.41c-1.824 0-3.318-1.503-3.318-3.34v-19.285c0-1.836 1.494-3.339 3.319-3.339M88.787 124.134h26.409c1.824 0 3.318 1.503 3.318 3.34v19.284c0 1.837-1.494 3.34-3.318 3.34h-26.41c-1.824 0-3.318-1.503-3.318-3.34v-19.285c0-1.836 1.494-3.339 3.319-3.339"/>
        <path fill="#232323" fill-opacity=".7" d="M132.804 124.134h26.41c1.824 0 3.317 1.503 3.317 3.34v19.284c0 1.837-1.493 3.34-3.318 3.34h-26.409c-1.825 0-3.318-1.503-3.318-3.34v-19.285c0-1.836 1.493-3.339 3.318-3.339" opacity=".1"/>
        <path fill="#2D91D0" fill-opacity=".5" d="M176.822 124.134h26.41c1.824 0 3.317 1.503 3.317 3.34v19.284c0 1.837-1.493 3.34-3.318 3.34h-26.409c-1.824 0-3.318-1.503-3.318-3.34v-19.285c0-1.836 1.494-3.339 3.318-3.339"/>
        <path fill="#E74C3C" d="M136.994 30.64h26.409c1.825 0 3.318 1.503 3.318 3.34v19.284c0 1.836-1.493 3.34-3.318 3.34h-26.409c-1.825 0-3.318-1.504-3.318-3.34V33.979c0-1.836 1.493-3.339 3.318-3.339"/>
        <path fill="#1272AF" d="M136.994 119.917h26.409c1.825 0 3.318 1.503 3.318 3.34v19.285c0 1.837-1.493 3.34-3.318 3.34h-26.409c-1.825 0-3.318-1.503-3.318-3.34v-19.285c0-1.837 1.493-3.34 3.318-3.34"/>
        <path fill="#8BC443" d="M48.959 75.279h26.409c1.824 0 3.318 1.502 3.318 3.34v19.284c0 1.837-1.494 3.34-3.318 3.34h-26.41c-1.824 0-3.318-1.503-3.318-3.34V78.618c0-1.837 1.494-3.34 3.319-3.34"/>
        <path fill="#FEC675" d="M245.988 89.201c-.99 6.48-2.972 41.537-2.146 49.678.825 8.142-38.301 10.468-33.184 1.496 5.118-8.972 1.486-38.713 1.486-38.713l33.844-12.461z"/>
        <path fill="#D39944" d="M243.28 90.192l-31.133 11.474s2.104 17.32.835 29.517c12.841-5.302 10-16.149 9.994-21.976-.007-5.295 20.337-18.007 20.304-19.015M202.242 91.554l-4.826 10.415 5.9 2.392z"/>
        <path fill="#FEC675" d="M202.154 88.098c-2.886 20.012-7.784 39.968 16.321 36.683 24.105-3.285 27.85-34.387 27.78-40.254-.374-31.306-38.428-35.781-44.101 3.571"/>
        <path fill="#232323" d="M249.193 66.189c1.863-.852 3.087-2.629 3.147-2.719l-1.224-.83c-.352.523-1.48 1.785-2.828 2.277.013-.216.045-.405.044-.643-.067-8.08-37.424-5.748-43.607 1.478-3.649 4.263.23 5.395 6.568 5.199-.516.466-.908.939-1.005 1.418-4.172 20.558 15.518 40.795 17.804 42.527h16.071s16.613-41.158 5.03-48.707"/>
        <path fill="#FEC675" d="M298.864 233.617c-2.141-9.55-13.237-50.852-22.027-70.676l-22.504 4.831s14.514 48.847 22.227 67.084c-1.79 9.808-10.907 55.462-16.532 68.245-2.466 5.813 6.918 8.238 9.22 5.381 2.3-2.857 28.112-55.102 29.527-71.338.03-.353-.007-.653.003-.99.128-.797.188-1.629.086-2.537"/>
        <path fill="#E5AA33" d="M265.056 142.806c11.794 9.296 30.146 48.906 30.146 48.906l-38.726 10.112s-22.527-83.54 8.58-59.018"/>
        <path fill="#232323" d="M283.63 298.385c-6.208 5.623-13.066 10.59-20.397 15.024-25.57 15.559-57.26 24.99-90.25 32.576a7.571 7.571 0 0 1 0-1.16c1.064-18.415 2.809-39.449 5.824-52.807l84.574 1.697 19.983.415c.089 1.012.178 2.44.267 4.255"/>
        <path fill="#FFC84D" d="M236.735 133.31c23.216.77 31.066 8.657 35.069 22.298 4.545 15.488 12.55 109.035 12.55 140.294 0 0-69.482 4.955-107.972-1.395 12.065-41.027 13.373-114.797 13.615-136.774.182-16.492 17.307-25.4 46.738-24.423"/>
        <path fill="#FFF" d="M235.083 138.85a.727.727 0 0 0-.662.41.733.733 0 0 0 .073.78l6.305 8.438a.71.71 0 0 0 .684.29.726.726 0 0 0 .592-.457l3.377-8.44a.742.742 0 0 0-.684-1.021h-9.685zm6.296 11.413a2.188 2.188 0 0 1-1.764-.892l-6.305-8.437a2.23 2.23 0 0 1-.21-2.337 2.205 2.205 0 0 1 1.983-1.235h9.685c.735 0 1.423.368 1.836.984.413.614.494 1.393.217 2.082l-3.378 8.438a2.192 2.192 0 0 1-2.064 1.397z"/>
        <path fill="#232323" d="M202.674 91.87c.078.974-.281 1.798-.802 1.84-.521.043-1.007-.713-1.085-1.688-.078-.974.281-1.798.802-1.84.522-.043 1.007.713 1.085 1.688M206.214 85.972c-2.047-3.153-5.487-2.445-5.632-2.412l-.32-1.452c.187-.04 4.582-.978 7.188 3.05l-1.236.814z"/>
        <path fill="#E5AA33" d="M189.922 163.075c-.178 10.8-.591 28.024-1.744 47.273 9.844-11.84 19.51-25.972 20.071-36.533.798-14.519-7.478-15.41-18.327-10.74"/>
        <path fill="#FEC675" d="M203.026 168.13l-11.915-19.81s-32.538 23.614-49.985 38.199c-8.633-15.28-23.406-42.985-26.617-53.57-.009-.03-.024-.05-.033-.078 1.612-2.695 3.277-7.483 3.768-10.416.016-.075.04-.13.052-.214.02-.139.014-.258.03-.394.02-.175.063-.39.072-.543.022-.416.035-.72.04-.985.098-4.81-1.978-7.752-1.128-13.827.592-4.238-4.228-2.774-5.165.037 0 0-.187 1.133-.377 2.512-1.21-2.94-8.521-20.442-11.31-20.842-3.074-.44-1.024 4.324.694 9.005a149.119 149.119 0 0 1 1.77 5.088c-4.066.93-7.69 7.955-8.253 10.897-.605 3.161 6.85 19.39 8.97 22.338.153.213.344.38.551.525 1.518 8.732 14.624 60.04 23.895 72.29 5.744 7.59 13.065 6.988 17.35 2.939 10.343-6.68 42.675-29.055 57.59-43.15"/>
        <path fill="#FFC84D" d="M222.975 148.32c-1.197 21.855-41.509 59.309-41.509 59.309l-22.299-36.882s65.983-62.135 63.808-22.427"/>
        <path fill="#FEC675" d="M210.556 94.262c-.887 5.251-2.176 10.445 2.702 10.08 4.88-.363 6.11-8.54 6.187-10.099.408-8.318-7.145-10.307-8.889.019"/>
    </g>
</svg>
