<svg xmlns="http://www.w3.org/2000/svg" width="285" height="280" viewBox="0 0 285 280">
    <g fill="none" fill-rule="evenodd">
        <path fill="#F6F6F6" d="M224.857 276.677c-6.278 1.369-12.968 2.271-19.931 2.654-25.605 1.56-55.049-3.228-83.423-12.804a261.383 261.383 0 0 1-18.862-7.14c-46.139-19.371-86.247-51-97.487-87.661C-15.38 104.804 28.703 56.678 79.75 12.519 100.448-5.4 127.424-2.83 155.333 12.3c6.524 3.53 13.076 7.743 19.629 12.531 24.59 18.03 48.935 44.269 69.496 73.434 40.355 57.263 63.713 133.98 5.812 168.7-7.374 4.432-15.955 7.634-25.413 9.712zM228.308 50.978c-4.762-9.58-6.504-21.706 3.044-25.61 10.663-4.36 27.656 2.689 32.6 18.68 3.161 10.22 2.076 24.484-6.657 29.97-7.474 4.692-23.144-11.288-28.987-23.04"/>
        <path fill="#D8D5DB" d="M77.124 2.228c-.008 0-.015 0-.024-.002a86.524 86.524 0 0 0-5.462-.203.342.342 0 1 1 .001-.683h.001c1.804.008 3.658.078 5.508.205a.34.34 0 0 1 .318.365.34.34 0 0 1-.342.318zm-16.433.525a.342.342 0 0 1-.048-.68 69.538 69.538 0 0 1 5.486-.572c.215-.036.353.13.364.318a.34.34 0 0 1-.318.363c-1.852.121-3.68.313-5.434.566a.277.277 0 0 1-.05.005zm27.327.828a.334.334 0 0 1-.06-.005 105.387 105.387 0 0 0-5.412-.82.343.343 0 0 1-.297-.383c.024-.185.18-.311.383-.297 1.804.226 3.636.504 5.446.826a.342.342 0 0 1-.06.679zm-38.01 1.642a.341.341 0 0 1-.104-.668 73.688 73.688 0 0 1 5.317-1.453.341.341 0 1 1 .155.666 73.157 73.157 0 0 0-5.266 1.438.358.358 0 0 1-.103.017zm48.724.756a.34.34 0 0 1-.089-.012 129.98 129.98 0 0 0-5.317-1.314.343.343 0 1 1 .15-.667c1.756.394 3.555.839 5.346 1.32a.342.342 0 0 1-.09.673zm10.493 3.256a.354.354 0 0 1-.114-.02 151.78 151.78 0 0 0-5.203-1.721.34.34 0 0 1-.225-.427.34.34 0 0 1 .427-.225c1.744.541 3.503 1.122 5.229 1.728a.344.344 0 0 1 .21.436.343.343 0 0 1-.324.229zm-69.37.105a.341.341 0 0 1-.156-.647 64.094 64.094 0 0 1 5.017-2.281.338.338 0 0 1 .446.187.341.341 0 0 1-.189.446 63.993 63.993 0 0 0-4.964 2.258.34.34 0 0 1-.155.037zm79.612 3.858a.345.345 0 0 1-.133-.026 168.072 168.072 0 0 0-5.08-2.06.345.345 0 0 1-.196-.444.351.351 0 0 1 .445-.195c1.698.658 3.415 1.354 5.098 2.068a.342.342 0 0 1-.134.657zm-88.879 1.975a.342.342 0 0 1-.21-.613 59.8 59.8 0 0 1 4.522-3.15.343.343 0 0 1 .473.106.34.34 0 0 1-.106.472 59.443 59.443 0 0 0-4.47 3.114.338.338 0 0 1-.209.07zm98.864 2.6a.34.34 0 0 1-.15-.035 204.012 204.012 0 0 0-4.953-2.354.343.343 0 0 1 .287-.623c1.64.754 3.313 1.549 4.967 2.362a.342.342 0 0 1-.15.65zM22.58 22.632a.334.334 0 0 1-.227-.087.339.339 0 0 1-.029-.483 59.496 59.496 0 0 1 3.849-3.94.342.342 0 1 1 .468.499 59.416 59.416 0 0 0-3.805 3.896.338.338 0 0 1-.256.115zm116.597.246a.324.324 0 0 1-.168-.044 214.167 214.167 0 0 0-4.82-2.61.343.343 0 0 1 .317-.606c1.611.845 3.238 1.727 4.837 2.62a.341.341 0 0 1-.166.64zm9.458 5.588a.35.35 0 0 1-.182-.053c-1.564-.974-3.14-1.93-4.686-2.844a.34.34 0 1 1 .347-.588c1.552.915 3.134 1.876 4.702 2.853a.343.343 0 0 1-.181.632zM16.062 31.43a.343.343 0 0 1-.292-.521 65.035 65.035 0 0 1 3.082-4.568.347.347 0 0 1 .479-.072.34.34 0 0 1 .072.478 64.778 64.778 0 0 0-3.049 4.52.34.34 0 0 1-.292.163zm141.755 3.058a.345.345 0 0 1-.194-.06 247.797 247.797 0 0 0-4.552-3.06.342.342 0 0 1-.097-.474.35.35 0 0 1 .475-.097 252.31 252.31 0 0 1 4.561 3.067.34.34 0 0 1-.193.624zm8.887 6.418a.348.348 0 0 1-.208-.07 264.117 264.117 0 0 0-4.401-3.256.34.34 0 0 1-.077-.476.341.341 0 0 1 .478-.077 251.202 251.202 0 0 1 4.415 3.264.343.343 0 0 1-.207.615zm-155.633.27a.341.341 0 0 1-.315-.474 74.335 74.335 0 0 1 2.32-4.99.341.341 0 1 1 .61.31 74.495 74.495 0 0 0-2.299 4.945.343.343 0 0 1-.316.21zm164.244 6.548a.345.345 0 0 1-.22-.079 233.729 233.729 0 0 0-4.263-3.453.344.344 0 0 1-.057-.481.35.35 0 0 1 .483-.056 244.813 244.813 0 0 1 4.277 3.464.344.344 0 1 1-.22.606zM7.487 51.527a.342.342 0 0 1-.33-.434 93.488 93.488 0 0 1 1.634-5.252.343.343 0 0 1 .648.222 90.771 90.771 0 0 0-1.622 5.214.343.343 0 0 1-.33.25zm176.143 3.408a.334.334 0 0 1-.23-.09 253.432 253.432 0 0 0-4.114-3.648.34.34 0 0 1-.033-.482.344.344 0 0 1 .484-.033c1.382 1.198 2.77 2.43 4.123 3.659.141.126.152.343.023.482a.336.336 0 0 1-.253.112zM5.124 62.227a.34.34 0 0 1-.337-.398c.305-1.82.655-3.636 1.043-5.398a.343.343 0 0 1 .669.147 111.4 111.4 0 0 0-1.038 5.363.342.342 0 0 1-.337.286zm186.466.27a.344.344 0 0 1-.242-.1 241.789 241.789 0 0 0-3.93-3.82.34.34 0 0 1-.012-.482.341.341 0 0 1 .484-.012 238.02 238.02 0 0 1 3.942 3.831.342.342 0 0 1-.242.584zm7.59 7.93a.34.34 0 0 1-.253-.113 223.566 223.566 0 0 0-3.742-4.003.342.342 0 0 1 .495-.474 216.519 216.519 0 0 1 3.753 4.018.339.339 0 0 1-.023.482.338.338 0 0 1-.23.09zM3.8 73.104c-.008 0-.018 0-.026-.002a.34.34 0 0 1-.315-.367c.144-1.844.328-3.683.545-5.468.022-.187.174-.311.381-.298a.342.342 0 0 1 .299.381 127.984 127.984 0 0 0-.542 5.438.342.342 0 0 1-.341.316zm202.562 5.622a.343.343 0 0 1-.265-.126 212.356 212.356 0 0 0-3.532-4.19.343.343 0 1 1 .52-.446 208.272 208.272 0 0 1 3.542 4.203.34.34 0 0 1-.05.481.34.34 0 0 1-.215.078zM3.357 84.054h-.001a.343.343 0 0 1-.342-.343c.008-1.837.049-3.685.121-5.49.008-.187.153-.343.356-.329a.344.344 0 0 1 .33.355c-.073 1.8-.113 3.638-.121 5.467a.342.342 0 0 1-.343.34zm209.723 3.349a.341.341 0 0 1-.277-.14 187.254 187.254 0 0 0-3.292-4.379.343.343 0 1 1 .544-.42 193.063 193.063 0 0 1 3.301 4.394.342.342 0 0 1-.276.545zM3.667 95.014a.343.343 0 0 1-.343-.322 170.638 170.638 0 0 1-.243-5.489.343.343 0 0 1 .334-.351h.01c.184 0 .337.146.342.332.05 1.78.131 3.62.242 5.468a.344.344 0 0 1-.322.362h-.02zm215.595 1.45a.342.342 0 0 1-.29-.159c-.966-1.52-1.98-3.057-3.013-4.57a.343.343 0 0 1 .568-.385 169.657 169.657 0 0 1 3.024 4.59.34.34 0 0 1-.289.524zm5.55 9.46a.345.345 0 0 1-.303-.18 148.886 148.886 0 0 0-2.683-4.769.342.342 0 0 1 .124-.467.339.339 0 0 1 .468.122c.93 1.583 1.836 3.195 2.696 4.79a.343.343 0 0 1-.303.504zm-220.179.014a.342.342 0 0 1-.34-.303 205.487 205.487 0 0 1-.561-5.463.343.343 0 0 1 .31-.371c.223-.02.355.124.373.31.156 1.775.345 3.607.558 5.447a.34.34 0 0 1-.301.378l-.039.002zm224.974 9.843a.343.343 0 0 1-.315-.205 126.758 126.758 0 0 0-2.288-4.966.343.343 0 0 1 .616-.3 131.373 131.373 0 0 1 2.301 4.993.342.342 0 0 1-.314.478zM6.178 116.792a.343.343 0 0 1-.338-.285c-.309-1.832-.591-3.657-.842-5.426a.34.34 0 0 1 .29-.385.343.343 0 0 1 .388.29c.25 1.763.532 3.582.84 5.408a.34.34 0 0 1-.338.398zm227.299 9.24a.344.344 0 0 1-.327-.238c-.544-1.7-1.15-3.433-1.802-5.154a.341.341 0 0 1 .198-.44.336.336 0 0 1 .442.197 104.167 104.167 0 0 1 1.815 5.189.343.343 0 0 1-.326.446zM8.247 127.56c-.158 0-.3-.11-.334-.27a225.239 225.239 0 0 1-1.098-5.38.34.34 0 0 1 .272-.399c.18-.049.365.086.4.271.344 1.79.712 3.594 1.095 5.364a.342.342 0 0 1-.335.414zm227.972 9.071a.343.343 0 0 1-.336-.276 87.495 87.495 0 0 0-1.208-5.32.342.342 0 0 1 .246-.417.347.347 0 0 1 .417.246c.468 1.8.877 3.603 1.217 5.36a.34.34 0 0 1-.336.407zm-225.42 1.59a.343.343 0 0 1-.331-.255c-.463-1.77-.909-3.544-1.336-5.324a.342.342 0 1 1 .666-.16c.427 1.777.87 3.546 1.334 5.31a.344.344 0 0 1-.332.429zm226.778 9.267a.343.343 0 0 1-.343-.325 75.057 75.057 0 0 0-.486-5.428.342.342 0 0 1 .297-.381c.205-.015.359.11.383.296.23 1.83.396 3.674.491 5.478a.344.344 0 0 1-.325.36h-.017zm-223.693 1.533a.34.34 0 0 1-.326-.24l-.082-.265a253.247 253.247 0 0 1-1.558-5.259.342.342 0 1 1 .659-.187c.497 1.746 1.02 3.512 1.556 5.25l.078.257a.34.34 0 0 1-.327.444zm223.515 9.412h-.025a.341.341 0 0 1-.317-.366c.128-1.79.213-3.624.255-5.452.004-.187.137-.326.35-.333.189.004.339.16.335.35a111.23 111.23 0 0 1-.258 5.483.341.341 0 0 1-.34.318zm-220.117 1.008a.343.343 0 0 1-.324-.23 357.68 357.68 0 0 1-1.74-5.202.343.343 0 0 1 .65-.212 422.617 422.617 0 0 0 1.737 5.19.341.341 0 0 1-.323.454zm218.77 9.852a.342.342 0 0 1-.337-.403c.315-1.758.59-3.574.816-5.392a.344.344 0 0 1 .382-.298.342.342 0 0 1 .298.38 101.85 101.85 0 0 1-.822 5.43.343.343 0 0 1-.337.283zm-215.056.443a.342.342 0 0 1-.32-.22 364.185 364.185 0 0 1-1.902-5.137.343.343 0 0 1 .645-.232c.62 1.717 1.253 3.427 1.897 5.127a.341.341 0 0 1-.32.462zm4.056 10.191a.342.342 0 0 1-.316-.211 338.13 338.13 0 0 1-2.071-5.083.342.342 0 1 1 .637-.253 339.725 339.725 0 0 0 2.066 5.074.34.34 0 0 1-.316.473zm208.454.008a.342.342 0 0 1-.329-.441 92.768 92.768 0 0 0 1.422-5.264.342.342 0 0 1 .667.158 93.35 93.35 0 0 1-1.432 5.304.341.341 0 0 1-.328.243zM29.451 189.976a.343.343 0 0 1-.312-.199 323.98 323.98 0 0 1-2.246-5.01.342.342 0 1 1 .63-.273 299.938 299.938 0 0 0 2.24 4.997.342.342 0 0 1-.312.485zm200.264.227a.341.341 0 0 1-.313-.48 90.71 90.71 0 0 0 2.044-5.057.342.342 0 1 1 .643.238 92.08 92.08 0 0 1-2.06 5.095.342.342 0 0 1-.314.204zm-195.504 9.653a.341.341 0 0 1-.306-.188c-.821-1.624-1.63-3.266-2.432-4.924a.342.342 0 0 1 .161-.457.345.345 0 0 1 .458.16 288.205 288.205 0 0 0 2.426 4.914.343.343 0 0 1-.307.495zm190.492.087a.34.34 0 0 1-.294-.515 91.134 91.134 0 0 0 2.644-4.784.34.34 0 0 1 .463-.149c.169.087.234.294.148.461a90.139 90.139 0 0 1-2.666 4.819.342.342 0 0 1-.295.168zm-6.117 9.084a.347.347 0 0 1-.208-.068.344.344 0 0 1-.065-.48 97.844 97.844 0 0 0 3.176-4.437.34.34 0 0 1 .475-.092.34.34 0 0 1 .093.474 97.728 97.728 0 0 1-3.198 4.468.341.341 0 0 1-.273.135zm-179.228.516a.342.342 0 0 1-.3-.175 258.462 258.462 0 0 1-2.626-4.824.34.34 0 0 1 .142-.462.348.348 0 0 1 .463.141c.867 1.633 1.748 3.25 2.621 4.811a.344.344 0 0 1-.3.51zm172.161 7.85a.342.342 0 0 1-.25-.576 109.581 109.581 0 0 0 3.631-4.083.349.349 0 0 1 .484-.04.342.342 0 0 1 .04.482 110.428 110.428 0 0 1-3.654 4.109.342.342 0 0 1-.25.108zm-166.595 1.603a.346.346 0 0 1-.292-.161 233.547 233.547 0 0 1-2.842-4.701.343.343 0 0 1 .593-.348c.93 1.582 1.882 3.16 2.832 4.688a.344.344 0 0 1-.29.522zm158.75 6.055a.349.349 0 0 1-.256-.113.344.344 0 0 1 .026-.485 126.119 126.119 0 0 0 3.999-3.73.346.346 0 0 1 .484.006.34.34 0 0 1-.005.483 129.537 129.537 0 0 1-4.02 3.752.349.349 0 0 1-.229.087zm-152.72 3.11a.342.342 0 0 1-.282-.147 197.82 197.82 0 0 1-3.08-4.552.34.34 0 0 1 .098-.472.346.346 0 0 1 .475.098 201.32 201.32 0 0 0 3.069 4.536.341.341 0 0 1-.28.536zm144.26 3.875a.342.342 0 0 1-.21-.613 152.78 152.78 0 0 0 4.288-3.404.341.341 0 1 1 .437.526 146.441 146.441 0 0 1-4.307 3.42.342.342 0 0 1-.209.071zm-137.715 4.927a.343.343 0 0 1-.27-.13 182.15 182.15 0 0 1-3.348-4.358.344.344 0 0 1 .07-.48.348.348 0 0 1 .481.07 167.398 167.398 0 0 0 3.337 4.344.344.344 0 0 1-.27.554zm128.787 1.45a.342.342 0 0 1-.19-.626 184.259 184.259 0 0 0 4.507-3.112.343.343 0 0 1 .399.556c-1.471 1.05-2.993 2.1-4.526 3.124a.337.337 0 0 1-.19.057zm-9.288 5.85a.342.342 0 0 1-.175-.636c1.597-.95 3.17-1.912 4.675-2.86a.35.35 0 0 1 .474.107c.1.16.052.371-.107.472a221.8 221.8 0 0 1-4.69 2.869.347.347 0 0 1-.177.048zm-112.366 1.034a.344.344 0 0 1-.251-.11 142.87 142.87 0 0 1-3.656-4.11.342.342 0 1 1 .522-.442c1.2 1.403 2.424 2.777 3.637 4.087a.342.342 0 0 1-.252.575zm102.807 4.367a.343.343 0 0 1-.162-.643c1.616-.87 3.218-1.752 4.803-2.646a.343.343 0 0 1 .337.595c-1.588.897-3.194 1.78-4.814 2.653a.356.356 0 0 1-.164.041zm-95 3.338a.35.35 0 0 1-.229-.086 111.407 111.407 0 0 1-4.005-3.775.343.343 0 0 1 .482-.487 110.492 110.492 0 0 0 3.981 3.751.342.342 0 0 1-.228.597zm85.24 1.688a.34.34 0 0 1-.152-.648 353.992 353.992 0 0 0 4.898-2.47.346.346 0 0 1 .462.148.343.343 0 0 1-.148.46 355.148 355.148 0 0 1-4.906 2.474.35.35 0 0 1-.153.036zm-9.915 4.725a.34.34 0 0 1-.31-.2.339.339 0 0 1 .168-.452 478.804 478.804 0 0 0 4.968-2.327.346.346 0 0 1 .457.162.34.34 0 0 1-.162.455c-1.649.785-3.31 1.562-4.977 2.33a.342.342 0 0 1-.144.032zm-66.75.423a.347.347 0 0 1-.197-.061 86.584 86.584 0 0 1-4.406-3.306.343.343 0 0 1-.054-.48.344.344 0 0 1 .482-.053 86.487 86.487 0 0 0 4.371 3.278.342.342 0 0 1-.196.622zm56.75 4.05a.341.341 0 0 1-.137-.656c1.677-.73 3.348-1.467 5.01-2.211a.345.345 0 0 1 .455.172.344.344 0 0 1-.173.453 594.589 594.589 0 0 1-5.019 2.213.358.358 0 0 1-.136.028zm-47.333 1.557a.34.34 0 0 1-.152-.035 67.858 67.858 0 0 1-4.842-2.634.345.345 0 0 1-.118-.47.345.345 0 0 1 .47-.118c1.588.948 3.2 1.826 4.793 2.607a.343.343 0 0 1-.151.65zm37.209 2.685a.343.343 0 0 1-.117-.663c.797-.287 1.61-.606 2.422-.947.88-.37 1.763-.745 2.642-1.12a.345.345 0 0 1 .45.18.341.341 0 0 1-.18.45c-.881.375-1.764.75-2.646 1.121-.822.347-1.647.668-2.455.96a.358.358 0 0 1-.116.02zm-26.968 1.18a.38.38 0 0 1-.087-.011 52.623 52.623 0 0 1-5.25-1.69.34.34 0 0 1-.198-.44.344.344 0 0 1 .442-.198 52.246 52.246 0 0 0 5.18 1.666c.184.05.293.237.245.418a.344.344 0 0 1-.332.255zm16.299 1.303a.343.343 0 0 1-.036-.683 43.917 43.917 0 0 0 5.367-.911.337.337 0 0 1 .412.253.342.342 0 0 1-.255.412c-1.799.423-3.633.734-5.451.927-.013.002-.025.002-.037.002zm-5.482.236h-.006a44.958 44.958 0 0 1-5.495-.452.342.342 0 0 1-.29-.387.33.33 0 0 1 .388-.289c1.801.26 3.622.41 5.41.444a.342.342 0 0 1-.007.684z"/>
        <path fill="#E3DFDF" d="M206.643 238.932c-.713.813-1.663 2.33-2.471 3.946-.188-5.52-.38-10.228-.565-13.128l.79-.053c0-12.898-1.496-37.321-3.524-61.622a124.606 124.606 0 0 0 1.964 3.924c.027.423.026.84.108 1.277 1.224 6.511 8.055 47.826 7.98 63.046-1.515.42-3.058 1.213-4.282 2.61m16.5-70.006c-.004-.024 0-.044-.006-.068-1.584-5.163-6.94-20.577-13.024-35.878l6.732-2.295s-19.717-35.047-31.267-42.751c-.031-.021-.057-.033-.088-.053-4.066-3.783-9.967-6.244-18.84-7.244-.047-7.31.51-19.635 1.128-29.07 4.559-1.049 6.754-6.363 7.06-7.548.621-2.41.043-4.401-1.144-5.704.69-5.68 2.23-21.677-2.22-22.652.027-.07.088-.12.112-.193.726-2.256-.61-4.772-.667-4.878l-1.207.649c.01.02 1.108 2.104.571 3.8-4.898-5.4-34.475-3.098-39.734 2.999-2.122 2.459-1.495 3.782.712 4.386a53.672 53.672 0 0 0-.52 6.138c-1.132 2.922-2.027 6.241-2.577 10.027-2.466 16.96-6.5 33.864 10.38 34.047a72.421 72.421 0 0 1-.333 5.528 39.434 39.434 0 0 1-.587 3.893c-6.411 1.552-11.42 4.02-14.917 7.311-12.373 10.219-28.045 43.002-28.045 43.002l4.417 2.164c-3.65 6.725-7.822 14.703-11.423 22.345-12.757-9.003-35.175-25.66-41.767-32.947-.019-.02-.04-.03-.057-.049.29-2.776-.169-7.252-.877-9.796-.014-.065-.015-.118-.037-.19-.038-.12-.087-.213-.126-.328-.05-.148-.095-.337-.147-.464a25.273 25.273 0 0 0-.338-.806c-1.735-3.9-4.526-5.478-6.13-10.68-1.119-3.628-4.471-.627-4.17 1.987 0 0 .276.981.642 2.16-2.09-1.903-14.613-13.191-17.023-12.456-2.657.81.801 3.862 3.96 6.97a132.186 132.186 0 0 1 3.352 3.417c-.052.04-.09.105-.14.148-3.016-1.73-8.155-4.448-9.882-3.548-2.336 1.216 1.2 3.228 4.468 5.347 1.123.728 2.014 1.334 2.832 1.902-3.02-1.049-7.293-2.311-8.476-1.368-1.766 1.409 1.74 2.662 5.035 4.049 1.333.56 2.38 1.03 3.324 1.465l-.014.341c-2.794-.877-7.787-2.296-8.912-1.285-1.482 1.333 1.833 2.353 4.968 3.5 1.357.497 3.265.913 4.212 1.297.005.003.007.02.01.032.704 2.769 12.863 12.98 15.693 14.546.205.113.422.175.644.213 4.523 6.438 34.494 42.688 46.625 49.015 7.517 3.92 13.219.663 15.164-4.214 3.486-5.524 9.238-14.594 14.753-24.603-1.591 26.32-4.727 56.797-10.979 77.877.562.093 1.151.175 1.728.261-2.057 10.166-2.845 17.073-3.756 30.54 25.062 11.399 57.778 16.886 82.711 18.97 6.955.581 13.77-.404 20.048-1.772.055-.438.055-.876.055-1.313-.126-5.47-.289-12.143-.47-18.767 1.373 3.55 3.163 6.454 4.587 7.19 1.507.778 8.613-3.593 10.173-6.167 1.534-2.533 2.72-14.619 1.815-17.842-.062-.22-.208-.398-.321-.593 1.42-7.875 6.097-56.242 2.31-69.994z" opacity=".4"/>
        <path fill="#FEC675" d="M144.79 129.61l-17.125-11.398s-11.966 20.352-20.598 38.678c-12.756-9.003-35.174-25.66-41.768-32.947-.018-.02-.037-.03-.056-.05.29-2.775-.168-7.252-.876-9.795-.015-.065-.016-.12-.039-.19-.036-.12-.086-.213-.125-.329-.05-.148-.096-.336-.146-.463a20.85 20.85 0 0 0-.34-.806c-1.734-3.9-4.525-5.478-6.128-10.68-1.12-3.629-4.471-.627-4.17 1.987 0 0 .275.98.641 2.16-2.089-1.904-14.612-13.192-17.023-12.456-2.656.81.802 3.861 3.96 6.97a129.061 129.061 0 0 1 3.352 3.417c-.345.267-.653.6-.928.983-2.068 2.886-2.224 8.622-1.647 10.897.703 2.768 12.863 12.98 15.692 14.544.206.114.423.177.645.214 4.523 6.438 34.495 42.688 46.626 49.016 7.515 3.919 13.219.663 15.163-4.214 5.857-9.284 18.125-28.563 24.89-45.537"/>
        <path fill="#0E5A8B" d="M155.562 96.4c2.709 13.599-8.18 52.295-8.18 52.295l-33.309-16.314s34.344-71.85 41.49-35.98"/>
        <path fill="#232323" d="M224.46 275.107c0 .438 0 .876-.055 1.313-6.277 1.368-12.967 2.271-19.93 2.654-25.605 1.56-55.05-3.228-83.424-12.804.987-14.61 2.522-29.85 4.88-40.137l78.461 1.56 6.141.136 11.679.22.685.027c.549 6.238 1.207 31.49 1.563 47.031"/>
        <path fill="#1272AF" d="M179.646 80.178c21.53.708 28.81 7.962 32.523 20.506 4.215 14.244 11.64 100.273 11.64 129.021 0 0-64.44 4.557-100.135-1.283 11.19-37.731 12.402-105.573 12.627-125.784.169-15.167 16.05-23.359 43.345-22.46"/>
        <path fill="#232323" d="M160.678 44.999c-2.121-1.593-13.185-.147-10-22.63 1.163-8.2 8.881-2.727 14.346-1.633 5.464 1.094 1.989 24.669 1.989 24.669l-6.335-.406z"/>
        <path fill="#FEC675" d="M188.227 39.613c-.918 5.96-2.756 38.2-1.99 45.687.765 7.487-35.52 9.626-30.775 1.375 4.747-8.25 1.379-35.602 1.379-35.602l31.386-11.46z"/>
        <path fill="#D39944" d="M185.715 40.525l-28.872 10.552s1.95 15.928.775 27.145c22.014-1.7 27.663-29.447 28.035-34.793.062-1.004.093-1.977.062-2.904"/>
        <path fill="#FEC675" d="M147.575 38.6c-2.676 18.404-7.218 36.756 15.136 33.735 22.355-3.022 25.83-31.625 25.764-37.02-.347-28.79-35.639-32.906-40.9 3.284"/>
        <path fill="#232323" d="M190.886 15.672c.027-.07.087-.12.11-.193.727-2.256-.61-4.773-.666-4.877l-1.207.647c.01.021 1.109 2.105.571 3.8-4.897-5.4-34.474-3.097-39.734 3-6.686 7.748 13.87 4.256 25.452 2.3 1.623 6.768 8.976 17.977 11.096 19.57l6.335.405s3.458-23.466-1.957-24.652"/>
        <path fill="#FEC675" d="M240.244 238.93c1.42-7.876 6.097-56.243 2.31-69.995-.003-.024 0-.045-.005-.07-2.643-8.607-15.767-45.71-25.27-63.277l-20.477 5.996s17.137 44.635 25.447 60.423c.027.424.026.84.108 1.278 1.223 6.51 8.055 47.826 7.978 63.046-1.514.42-3.057 1.213-4.28 2.61-1.559 1.777-4.28 6.885-4.088 9.15.546 6.467 4.146 14.167 6.61 15.44 1.506.777 8.614-3.594 10.173-6.167 1.534-2.534 2.72-14.62 1.816-17.843-.062-.22-.208-.397-.322-.592"/>
        <path fill="#1272AF" d="M204.99 87.942c11.55 7.704 31.267 42.75 31.267 42.75l-35.112 11.97s-26.623-75.041 3.844-54.72"/>
        <path fill="#232323" d="M166.923 37.689c.071.896-.415 1.666-1.088 1.72-.673.055-1.277-.628-1.35-1.524-.072-.897.415-1.667 1.088-1.721.673-.054 1.277.629 1.35 1.525M152.683 38.065c.072.897-.415 1.667-1.088 1.721-.673.054-1.277-.628-1.35-1.525-.072-.896.416-1.666 1.089-1.72.673-.054 1.277.629 1.349 1.524M170.425 32.653c-1.906-2.92-5.184-2.225-5.218-2.217l-.3-1.336c.172-.035 4.245-.9 6.666 2.805l-1.148.748zM148.87 34.358l-1.245-.57c1.848-4.023 6.002-3.765 6.177-3.756l-.096 1.365c-.13-.01-3.39-.18-4.837 2.961M162.64 57.437c-.908-.052-1.48-.186-1.499-.191l.324-1.329c.251.061 6.2 1.417 9.863-3.953l1.133.771c-3.022 4.43-7.508 4.832-9.82 4.702"/>
        <path fill="#D39944" d="M153.035 50.6l3.487-11.865 1.314.384-2.965 10.088 4.801-.064.02 1.369z"/>
        <path fill="#FFC97B" d="M182.805 41.956c-2.019 4.54-4.547 8.935 1.793 9.752 6.341.816 9.292-6.29 9.65-7.68 1.917-7.428-7.471-11.001-11.443-2.072"/>
        <path fill="#FEC675" d="M45.9 104.84c-2.144-1.269-9.454-5.636-11.573-4.532-2.336 1.216 1.2 3.227 4.469 5.347 1.414.917 2.51 1.668 3.483 2.352"/>
        <path fill="#FEC675" d="M44.182 108.486c-2.136-.802-9.428-3.576-11.03-2.297-1.767 1.408 1.738 2.661 5.034 4.048 1.426.6 2.54 1.1 3.533 1.56M42.862 112.48c-2.023-.657-8.934-2.93-10.278-1.721-1.481 1.332 1.833 2.352 4.969 3.5 1.357.496 3.264.912 4.212 1.296"/>
        <path fill="#FFF" d="M169.576 128.764c.632 3.201 1.709 6.286 2.504 9.445.215.853.141 1.823.876 2.63.287-1.458.38-4.167.475-5.546.306-.406.033.45 0 0 .058-.387.057-.731.114-1.12.035-.279.096-.558.114-.815.023-.445.236-2.457.26-2.902.31-.493.036.534 0 0l.295-2.166.315-.461c1.13-.568 1.814-.047 2.306.942-.032.374-.223-.254 0 0 .127.334.627 1.402.707 1.698.163.45.272.804.512 1.214.077.178.119.295.183.491.144.33.284.56.458.862.02.21 0 0 .041.322l.32.72.052.26.155.247c.011.079-.007.199.038.229.65.447 2.772.308 3.38-.211l.76-.41 1.39-.103c.571.4 1.044.9 1.473 1.444v1.21c-1.166 1.694-1.491 1.726-3.676.9-.943-.356-2.007-.183-2.997-.092-1.187.108-1.988-.06-2.326-1.397-.18-.713-.612-1.38-.781-2.124-.046-.203-.1-.415-.34-.43-.285-.016-.27.217-.289.417-.244 2.635-.49 5.27-.74 7.906-.162 1.714-.31 3.43-.505 5.14-.076.66-.506 1.14-1.177 1.18-.818.047-1.216-.55-1.41-1.25-.76-2.727-1.496-5.46-2.24-8.19-.795-2.922-1.588-5.844-2.386-8.765-.027-.097-.1-.18-.212-.375-.274.495-.183.925-.18 1.336.03 6.122.06 12.243.098 18.364.007 1.12-.326 2.058-1.374 2.605-1.025.534-1.906.18-2.808-.41-3.784-2.475-7.598-4.905-11.388-7.37-.42-.273-.823-.597-1.316-.377-.531.236-.29.784-.296 1.193-.026 1.853-.009 3.707-.02 5.56-.006.78-.253 1.489-1.103 1.63-.816.135-1.317-.325-1.32-1.175-.01-2.78-.07-5.563.028-8.34.065-1.861 2.11-2.701 3.814-1.61 3.401 2.179 6.772 4.404 10.159 6.606.57.371 1.148.736 1.736 1.08 1.03.602 1.448.391 1.47-.833.043-2.457.026-4.915.025-7.372-.003-6.406-.006-12.811-.022-19.217-.002-.849 0-1.686 1.102-1.799 1.055-.107 1.327.694 1.552 1.494.388 1.377.77 2.755 1.156 4.132l.191.746"/>
    </g>
</svg>
