<svg xmlns="http://www.w3.org/2000/svg" width="17" height="11" viewBox="0 0 17 11">
    <path fill="#0D74B7" fill-rule="evenodd" d="M5.14 8.648c.22.159.66.37 1.211.53 1.047.37 2.534.581 4.186.581 1.597 0 3.084-.211 4.13-.582.937-.264 1.542-.635 1.542-1.005v-.635c-.33.212-.77.37-1.266.53-1.157.37-2.699.581-4.406.581H9.435c-.33 0-.66-.053-.936-.106-.66.106-1.322.106-2.038.106H5.14zm-2.175-4.18c0 .37.547.741 1.477 1.006 1.04.37 2.516.582 4.157.582 1.64 0 3.063-.212 4.157-.582.93-.265 1.477-.635 1.477-1.006v-.635c-.329.212-.766.37-1.258.53-1.149.37-2.68.581-4.376.581-1.696 0-3.282-.211-4.43-.582-.493-.158-.876-.317-1.204-.529v.635zm-.915.016v-.836c-.401.105-.687.261-.916.418-.229.157-.343.313-.343.47 0 .366.572.731 1.545.992.171.053.4.105.63.157-.573-.313-.916-.731-.916-1.201zM8.646 6.77h-.547c-.219.052-.492.052-.711.052h-.766c-1.696 0-3.282-.207-4.43-.568-.493-.155-.875-.31-1.204-.569v.672c0 .362.547.724 1.477.982 1.04.362 2.516.568 4.157.568s3.118-.206 4.157-.568c.875-.258 1.422-.569 1.477-.93-1.04.258-2.297.361-3.61.361zm4.309-.556v.159c0 .635-.552 1.164-1.49 1.534 1.269-.053 2.372-.264 3.2-.529.938-.264 1.544-.635 1.544-1.005 0-.159-.165-.317-.386-.476-.276-.212-.717-.424-1.269-.582-.33.37-.882.688-1.6.9zm2.016-1.642c0 .052 0 .103-.055.155.549.206.987.412 1.371.618.439.31.713.67.713 1.083v1.804c0 .722-.823 1.34-2.084 1.701-1.152.36-2.687.567-4.387.567-1.755 0-3.29-.206-4.442-.567-1.042-.31-1.81-.825-1.974-1.34-.768-.103-1.48-.258-2.084-.464C.768 7.717 0 7.149 0 6.428V4.624C0 4.21.22 3.85.658 3.54c.384-.206.823-.412 1.371-.618v-.155c0-.67.768-1.289 2.029-1.701C5.21.707 6.8.5 8.5.5c1.7 0 3.236.206 4.387.567 1.261.412 2.084 1.03 2.084 1.701v1.804zm-10.53-.92c1.04.35 2.517.552 4.158.552 1.64 0 3.063-.201 4.157-.553.93-.25 1.477-.602 1.477-.954 0-.301-.547-.653-1.477-.954-1.094-.301-2.516-.502-4.157-.502s-3.118.2-4.157.502c-.93.301-1.477.653-1.477.954 0 .352.547.703 1.477.954z"/>
</svg>
