<svg xmlns="http://www.w3.org/2000/svg" width="431" height="247" viewBox="0 0 431 247">
    <path fill="#FFF" fill-opacity=".3" fill-rule="evenodd" d="M58.345 32.956C56.69 24.465 62.874 15.24 71.464 13.84c6.804-1.46 14.006 2.2 17.652 7.963 41.106 69.913 81.853 140.036 123.13 209.852-4.034-17.099-9.096-33.943-13.476-50.948-8.773-33.553-18.689-66.81-27.13-100.44-4.176-12.3-6.656-25.072-10.228-37.553-2.64-9.004-1.537-19.103 3.38-27.14C170.043 6.381 180.574.671 191.108.882c5.709-.06 11.084 2.072 16.425 3.808 41.209 13.463 82.403 26.951 123.62 40.402 16.814 5.34 33.427 11.355 50.452 16.049 3.256.753 7.167 1.941 10.13-.25 2.677-2.22 2.329-6.07 2.017-9.165-1.364-9.884-4.397-19.424-6.914-29.05-4.826-18.357-9.883-36.651-14.667-55.009-1.976-7.99 2.86-17.34 11.005-19.471 8.52-2.511 17.859 3.786 20.022 12.13 7.972 29.596 15.866 59.212 23.818 88.813 1.43 5.528 3.498 10.968 3.665 16.731.42 8.48-1.885 17.266-7.338 23.883-7.037 8.667-19.133 12.591-29.975 10.227-2.598-.578-5.11-1.49-7.629-2.315-41.447-13.503-82.878-27.061-124.309-40.62-17.263-5.427-34.282-11.644-51.72-16.486-3.662-.882-8.475-2.46-11.423.794-2.666 3.727-1.233 8.571-.61 12.71 4.438 19.734 9.99 39.18 15.194 58.719 19.123 72.18 38.853 144.187 58.33 216.262 3.068 9.592-4.414 21.35-14.531 21.96-6.047-.39-12.614-2.761-15.675-8.348-46.422-79.132-92.828-158.278-139.152-237.467 1.031 10.688 3.14 21.221 4.826 31.805 6.36 40.12 12.86 80.215 19.269 120.323.364 2.48.915 4.962.93 7.493-.149 5.663-3.451 11.072-8.286 13.972-6.742 4.125-16.426 2.33-21.232-3.939-19.373-25.008-38.823-49.955-58.092-75.042-12.332 2.735-24.423 6.41-36.646 9.592-1.86 5.965-5.394 11.476-10.523 15.129-7.018 5.183-16.546 6.753-24.847 4.018-8.505-2.608-15.422-9.647-18.056-18.125-2.657-8.253-1.11-17.705 4.026-24.693 5.278-7.388 14.358-11.788 23.414-11.491 5.24-.07 9.904 2.46 14.66 4.177 17.216-4.136 34.209-9.145 51.326-13.69 4.379-1.122 9.356.568 12.097 4.192 10.796 13.63 21.076 27.657 32.102 41.102-9.657-58.99-18.997-118.035-28.465-177.056" opacity=".4"/>
</svg>
