<svg version="1.1" xmlns="http://www.w3.org/2000/svg" xmlns:xlink="http://www.w3.org/1999/xlink" xml:space="preserve">
  <defs>
    <g id="eye">
      <path d="M15.9,7.7C15.8,7.5,13,2,8,2S0.2,7.5,0.1,7.7C0,7.9,0,8.1,0.1,8.3C0.2,8.5,3,14,8,14s7.8-5.5,7.9-5.7
      C16,8.1,16,7.9,15.9,7.7z M8,12.7c-3.6,0-5.9-3.6-6.6-4.7c0.7-1.1,3-4.7,6.6-4.7s5.9,3.6,6.6,4.7C13.9,9.1,11.6,12.7,8,12.7z M8,5.3
      C6.5,5.3,5.3,6.5,5.3,8s1.2,2.7,2.7,2.7s2.7-1.2,2.7-2.7S9.5,5.3,8,5.3z M8,9.3C7.3,9.3,6.7,8.7,6.7,8S7.3,6.7,8,6.7S9.3,7.3,9.3,8
      S8.7,9.3,8,9.3z"/>
    </g>
    <g id="search">
      <path d="M15.8,14.6L12.2,11c0.9-1.1,1.4-2.6,1.4-4.2c0-3.8-3-6.8-6.8-6.8S0,3,0,6.8s3,6.8,6.8,6.8c1.6,0,3-0.6,4.2-1.4
      l3.6,3.6c0.2,0.2,0.4,0.2,0.6,0.2s0.4-0.1,0.6-0.2C16.1,15.4,16.1,15,15.8,14.6z M1.6,6.8c0-2.9,2.3-5.2,5.2-5.2S12,3.9,12,6.8
      c0,1.4-0.6,2.7-1.5,3.7l0,0l0,0c-1,1-2.2,1.5-3.7,1.5C3.9,12,1.6,9.7,1.6,6.8z"/>
    </g>
    <g id="plus">
      <path d="M16,8c0,0.6-0.4,1-1,1H9v6c0,0.6-0.4,1-1,1s-1-0.4-1-1V9H1C0.4,9,0,8.6,0,8s0.4-1,1-1h6V1c0-0.6,0.4-1,1-1
        s1,0.4,1,1v6h6C15.6,7,16,7.4,16,8z"/>
    </g>
    <g id="close">
      <path d="M15.7,14.1c0.5,0.5,0.5,1.1,0,1.6c-0.2,0.2-0.5,0.3-0.8,0.3s-0.6-0.1-0.8-0.3L8,9.6l-6.1,6.1
        C1.7,15.9,1.5,16,1.1,16s-0.6-0.1-0.8-0.3c-0.5-0.5-0.5-1.1,0-1.6L6.4,8L0.3,1.9c-0.5-0.5-0.5-1.1,0-1.6s1.1-0.5,1.6,0L8,6.4
        l6.1-6.1c0.5-0.5,1.1-0.5,1.6,0s0.5,1.1,0,1.6L9.6,8L15.7,14.1z"/>
    </g>
    <g id="check">
      <path d="M5.6,13.9c-0.4,0-0.8-0.1-1.1-0.4l-4-3.9c-0.6-0.6-0.6-1.6,0-2.2C1,6.7,2,6.7,2.6,7.3l3,2.9l7.8-7.5
	      C14,2,15,2,15.6,2.6c0.6,0.6,0.6,1.6,0,2.2l-8.9,8.6C6.4,13.7,6,13.9,5.6,13.9z"/>
    </g>
    <g id="edit">
      <path transform="translate(1 1)" d="M3.8,15h-4C-0.6,15-1,14.6-1,14.2v-4c0-0.2,0.1-0.4,0.2-0.6L9.6-0.8
        c0.3-0.3,0.8-0.3,1.1,0l4,4c0.3,0.3,0.3,0.8,0,1.1L4.4,14.8C4.2,14.9,4,15,3.8,15z M0.6,13.4h2.9l9.6-9.6l-2.9-2.9l-9.6,9.6V13.4z"
        />
    </g>
    <g id="delete">
      <path d="M14.5,2.9h-1.5h-1.5V2.2c0-1.2-1-2.2-2.2-2.2H6.5C5.3,0,4.4,1,4.4,2.2v0.7H2.9H1.5c-0.4,0-0.7,0.3-0.7,0.7
      s0.3,0.7,0.7,0.7h0.7v9.5c0,1.2,1,2.2,2.2,2.2h7.3c1.2,0,2.2-1,2.2-2.2V4.4h0.7c0.4,0,0.7-0.3,0.7-0.7S14.9,2.9,14.5,2.9z M5.8,2.2
      c0-0.4,0.3-0.7,0.7-0.7h2.9c0.4,0,0.7,0.3,0.7,0.7v0.7H5.8V2.2z M12.4,13.8c0,0.4-0.3,0.7-0.7,0.7H4.4c-0.4,0-0.7-0.3-0.7-0.7V4.4
      h1.5h5.8h1.5V13.8z M7.3,7.3v4.4c0,0.4-0.3,0.7-0.7,0.7c-0.4,0-0.7-0.3-0.7-0.7V7.3c0-0.4,0.3-0.7,0.7-0.7C6.9,6.5,7.3,6.9,7.3,7.3z
      M10.2,7.3v4.4c0,0.4-0.3,0.7-0.7,0.7c-0.4,0-0.7-0.3-0.7-0.7V7.3c0-0.4,0.3-0.7,0.7-0.7C9.9,6.5,10.2,6.9,10.2,7.3z"/>
    </g>
    <g id="back">
      <path d="M16,8c0,0.5-0.4,0.9-0.9,0.9H3l3.8,3.8c0.3,0.3,0.3,0.9,0,1.3c-0.2,0.2-0.4,0.3-0.6,0.3S5.8,14.1,5.6,14
      L0.3,8.6C0.2,8.5,0.1,8.4,0.1,8.3C0,8.1,0,7.9,0.1,7.7c0-0.1,0.1-0.2,0.2-0.3L5.6,2c0.3-0.3,0.9-0.3,1.3,0s0.3,0.9,0,1.3L3,7.1h12.1
      C15.6,7.1,16,7.5,16,8z"/>
    </g>
    <g id="record">
      <path d="M14.5,4.8c0-0.1-0.1-0.2-0.2-0.2L10,0.2C9.9,0.1,9.8,0.1,9.7,0.1C9.6,0,9.6,0,9.5,0H3.6C2.4,0,1.5,1,1.5,2.2
      v11.6c0,1.2,1,2.2,2.2,2.2h8.7c1.2,0,2.2-1,2.2-2.2V5.1C14.5,5,14.5,4.9,14.5,4.8z M10.2,2.5l1.9,1.9h-1.9V2.5z M12.4,14.5H3.6
      c-0.4,0-0.7-0.3-0.7-0.7V2.2c0-0.4,0.3-0.7,0.7-0.7h5.1v3.6c0,0.4,0.3,0.7,0.7,0.7h3.6v8C13.1,14.2,12.8,14.5,12.4,14.5z M11.6,8.7
      c0,0.4-0.3,0.7-0.7,0.7H5.1c-0.4,0-0.7-0.3-0.7-0.7C4.4,8.3,4.7,8,5.1,8h5.8C11.3,8,11.6,8.3,11.6,8.7z M11.6,11.6
      c0,0.4-0.3,0.7-0.7,0.7H5.1c-0.4,0-0.7-0.3-0.7-0.7c0-0.4,0.3-0.7,0.7-0.7h5.8C11.3,10.9,11.6,11.2,11.6,11.6z M4.4,5.8
      c0-0.4,0.3-0.7,0.7-0.7h1.5c0.4,0,0.7,0.3,0.7,0.7c0,0.4-0.3,0.7-0.7,0.7H5.1C4.7,6.5,4.4,6.2,4.4,5.8z"/>
    </g>
    <g id="settings">
      <path class="st0" d="M12.5,16.6c-2.3,0-4.1-1.8-4.1-4.1s1.8-4.1,4.1-4.1s4.1,1.8,4.1,4.1S14.8,16.6,12.5,16.6z M12.5,10.3
        c-1.1,0-2.2,1-2.2,2.2s0.9,2.2,2.2,2.2c1.1,0,2.2-0.9,2.2-2.2C14.7,11.4,13.6,10.3,12.5,10.3z M12.6,25c-0.8,0-1.5-0.3-2.1-0.8
        C10,23.6,9.6,22.8,9.6,22v-0.1c0-0.3-0.2-0.7-0.5-0.8C8.8,21,8.5,21,8.2,21.2c-1.3,1.3-3.2,1.3-4.4,0C3.3,20.6,3,19.8,3,19
        s0.3-1.6,0.9-2.2c0.2-0.2,0.3-0.6,0.2-0.9s-0.3-0.5-0.7-0.5H3.1c-0.8,0-1.6-0.2-2.2-0.8S0,13.3,0,12.5s0.2-1.6,0.8-2.2
        C1.4,9.9,2.2,9.5,3,9.5h0.1c0.3,0,0.7-0.2,0.8-0.5C4,8.7,4,8.4,3.8,8.1c-0.7-0.6-1-1.4-1-2.2s0.3-1.6,0.9-2.2S5,2.9,5.8,2.9l0,0
        c0.8,0,1.6,0.3,2.2,0.9C8.2,4,8.6,4.1,8.9,4c0.1,0,0.1,0,0.2-0.1c0.1-0.1,0.2-0.3,0.2-0.6V3.1c0-1.7,1.4-3.1,3.1-3.1
        s3.1,1.4,3.1,3.1c0,0.3,0.2,0.7,0.5,0.8C16.4,4,16.6,4,16.9,3.8c1.3-1.3,3.2-1.3,4.4,0c0.6,0.6,0.9,1.4,0.9,2.2s-0.3,1.6-0.9,2.2
        C21,8.4,20.9,8.7,21,9.1c0,0.1,0,0.1,0.1,0.2c0.1,0.2,0.3,0.3,0.7,0.3H22l0,0c1.7,0,3.1,1.4,3.1,3.1s-1.4,3.1-3.1,3.1
        c-0.3,0-0.7,0.2-0.8,0.5l0,0c-0.1,0.3-0.1,0.6,0.1,0.8c0.7,0.6,0.9,1.4,0.9,2.2s-0.3,1.6-0.9,2.2c-1.1,1.1-3.2,1.1-4.4,0
        c-0.2-0.2-0.6-0.3-0.9-0.2c-0.3,0.1-0.5,0.3-0.5,0.7v0.2c0,0.8-0.2,1.6-0.8,2.2C14.2,24.7,13.4,25,12.6,25L12.6,25z M8.7,19.2
        c0.3,0,0.7,0.1,1,0.2c1,0.3,1.7,1.4,1.7,2.4v0.1c0,0.3,0.1,0.7,0.3,0.9c0.2,0.2,0.5,0.3,0.8,0.3s0.6-0.1,0.8-0.3
        c0.2-0.2,0.3-0.5,0.3-0.8v-0.3c0-1,0.7-2.1,1.6-2.4c1-0.5,2.2-0.2,3,0.6c0.6,0.6,1.3,0.5,1.6,0.1c0.2-0.2,0.3-0.5,0.3-0.8
        c0-0.3-0.1-0.6-0.3-0.8c-0.8-0.8-1-2.1-0.6-3c0.5-1,1.4-1.6,2.4-1.6c0.7,0,1.3-0.5,1.3-1.1c0-0.6-0.5-1.1-1.1-1.1l0,0h-0.2
        c-1,0-2.1-0.7-2.4-1.6c0-0.1-0.1-0.1-0.1-0.2c-0.3-0.9-0.1-2.1,0.6-2.8c0.2-0.2,0.3-0.6,0.3-0.9s-0.1-0.6-0.3-0.8
        c-0.5-0.5-1.1-0.5-1.6,0c-0.8,0.8-2.1,1-3,0.6c-0.9-0.5-1.5-1.5-1.5-2.5c0-0.7-0.5-1.3-1.1-1.3c-0.6,0-1.1,0.5-1.1,1.1v0.2
        c0,1-0.7,2.1-1.6,2.4c-0.1,0-0.2,0.1-0.2,0.1C8.5,6.2,7.4,6,6.8,5.2C6.2,4.7,5.5,4.7,5,5.2C4.8,5.4,4.7,5.6,4.7,6S4.8,6.5,5,6.8
        c0.8,0.8,1,1.9,0.6,3c-0.3,1-1.3,1.7-2.4,1.7H3.1c-0.7,0-1.1,0.6-1.1,1.1c0,0.3,0.1,0.6,0.3,0.8c0.2,0.2,0.5,0.2,0.8,0.2h0.2
        c1,0,2.1,0.7,2.4,1.6c0.5,1,0.2,2.2-0.6,3c-0.5,0.5-0.5,1.3-0.1,1.6c0.5,0.5,1.1,0.5,1.6,0C7.3,19.4,8,19.2,8.7,19.2z M20.2,15.6
        L20.2,15.6L20.2,15.6z"/>
    </g>
    <g id="clock">
      <path transform="translate(1 1)" class="st0" d="M10,20.8C4,20.8-0.8,16-0.8,10C-0.8,4,4-0.8,10-0.8C16-0.8,20.8,4,20.8,10
      C20.8,16,16,20.8,10,20.8z M10,0.8c-5.1,0-9.2,4.1-9.2,9.2s4.1,9.2,9.2,9.2s9.2-4.1,9.2-9.2S15.1,0.8,10,0.8z M13.6,13.6
      c0.3-0.3,0.3-0.9,0-1.2l-2.8-2.8V4c0-0.5-0.4-0.8-0.8-0.8S9.2,3.5,9.2,4v6c0,0.2,0.1,0.4,0.2,0.6l3,3c0.2,0.2,0.4,0.2,0.6,0.2
      S13.4,13.8,13.6,13.6z"/>
    </g>
    <g id="file">
      <path class="st0" d="M19.4,25H5.5c-1.8,0-3.2-1.5-3.2-3.2V3.3C2.3,1.5,3.8,0,5.5,0h8.1c0.2,0,0.5,0.1,0.7,0.2l8.1,8.1
      c0.2,0.2,0.2,0.5,0.2,0.7v12.7C22.7,23.5,21.2,25,19.4,25z M5.5,2C4.8,2,4.1,2.5,4.1,3.3v18.4c0,0.7,0.6,1.4,1.4,1.4h13.8
      c0.7,0,1.4-0.6,1.4-1.4V9.4L13.2,2H5.5z"/>
      <g>
        <path class="st0" d="M22.7,9c0-0.6-0.5-0.9-0.9-0.9h-7.1V0.9c0-0.6-0.5-0.9-0.9-0.9c-0.5,0-1,0.5-1,0.9V9c0,0.6,0.5,0.9,0.9,0.9
          h8.1C22.2,10,22.7,9.6,22.7,9z"/>
      </g>
    </g>
    <g id="star">
      <path class="st0" d="M19.4,24.3c-0.1,0-0.3,0-0.5-0.1l-6.6-3.4l-6.6,3.4c-0.3,0.1-0.7,0.1-1-0.1c-0.3-0.2-0.5-0.6-0.3-0.9l1.3-7.3
      l-5.4-5.2C0,10.3-0.1,10,0,9.6s0.5-0.6,0.8-0.7l7.4-1l3.3-6.7c0.3-0.7,1.4-0.7,1.7,0l3.3,6.7l7.4,1c0.3,0,0.7,0.3,0.8,0.7
      c0.1,0.3,0,0.7-0.2,1l-5.4,5.2l1.3,7.3c0.1,0.3-0.1,0.7-0.3,0.9C19.8,24.2,19.6,24.3,19.4,24.3z M3,10.6l4.3,4.2
      c0.2,0.2,0.3,0.6,0.2,0.8l-1,5.9l5.4-2.8c0.2-0.1,0.6-0.1,0.9,0l5.4,2.8l-1-5.9c0-0.3,0-0.7,0.2-0.8l4.3-4.2l-5.9-0.9
      c-0.3,0-0.6-0.2-0.7-0.6l-2.7-5.4L9.7,9.2C9.5,9.5,9.3,9.7,8.9,9.7L3,10.6z"/>
    </g>
    <g id="call">
      <path class="st0" d="M21.6,25c-0.1,0-0.3,0-0.3,0c-3.7-0.4-7.2-1.7-10.3-3.7c-2.8-1.8-5.4-4.2-7.2-7.2C1.7,11,0.4,7.5,0,3.8
      c-0.1-2,1.3-3.7,3.1-3.8c0.1,0,0.1,0,0.3,0h3.4l0,0c1.7,0,3.2,1.3,3.4,3c0.1,1,0.4,2,0.7,3c0.7,1.3,0.4,2.7-0.6,3.7l-0.8,0.7
      c1.3,2.1,3.1,3.8,5.1,5.1l0.8-0.8c1-1,2.4-1.3,3.7-0.8c1,0.3,2,0.6,3,0.7c1.7,0.3,3.1,1.7,3,3.5v3.4c0,1-0.3,1.8-1,2.4
      C23.3,24.6,22.5,25,21.6,25L21.6,25z M6.9,2.4L6.9,2.4H3.5c-0.4,0-0.7,0.1-0.8,0.4S2.4,3.2,2.4,3.5C2.8,6.8,4,10,5.7,12.9
      c1.7,2.5,3.8,4.8,6.5,6.5c2.8,1.8,5.9,3,9.3,3.2c0.7,0,1.1-0.4,1.1-1.1l0,0v-3.4c0-0.6-0.4-1-1-1.1c-1.1-0.1-2.3-0.4-3.4-0.8
      c-0.4-0.1-0.8,0-1.1,0.3l-1.4,1.4c-0.4,0.4-1,0.4-1.4,0.1c-3-1.7-5.5-4.2-7.2-7.2c-0.3-0.4-0.1-1.1,0.1-1.4l1.4-1.4
      C8.9,7.6,9,7.2,8.9,6.8c-0.4-1.1-0.8-2.3-1-3.5C7.9,2.8,7.5,2.4,6.9,2.4z M25,21.5L25,21.5L25,21.5z"/>
    </g>
    <g id="logout">
      <path class="st0" d="M10.6,25H4.8c-1.9,0-3.2-1.5-3.2-3.2V3.2C1.6,1.4,3.1,0,4.8,0h5.8c0.6,0,0.9,0.5,0.9,0.9s-0.3,0.9-0.9,0.9H4.8
      c-0.7,0-1.4,0.7-1.4,1.4v18.5c0,0.7,0.6,1.4,1.4,1.4h5.8c0.6,0,0.9,0.5,0.9,0.9C11.6,24.5,11.2,25,10.6,25z M18.7,18.1
      c-0.2,0-0.5-0.1-0.7-0.2c-0.3-0.3-0.3-1,0-1.4l3-3H9.5c-0.6,0-0.9-0.5-0.9-0.9c0-0.5,0.5-0.9,0.9-0.9H21l-3-3c-0.3-0.3-0.3-1,0-1.4
      c0.3-0.3,1-0.3,1.4,0l4.6,4.6l0,0l0,0l0,0l0,0c0.1,0.1,0.1,0.2,0.2,0.3l0,0l0,0c0,0.1,0.1,0.2,0.1,0.3l0,0l0,0l0,0l0,0l0,0l0,0
      c0,0.1,0,0.2-0.1,0.3l0,0l0,0c0,0.1-0.1,0.2-0.2,0.3l0,0l0,0l0,0l0,0l-4.6,4.6C19.2,18.1,19,18.1,18.7,18.1z"/>
    </g>

    <g id="arrow-left">
      <path class="st0" d="M17.9,25c-0.5,0-0.9-0.2-1.3-0.5L5.8,13.8c-0.7-0.7-0.7-1.8,0-2.5L16.6,0.5c0.7-0.7,1.9-0.7,2.6,0
	    s0.7,1.8,0,2.5l-9.6,9.5l9.6,9.5c0.7,0.7,0.7,1.8,0,2.5C18.8,24.8,18.4,25,17.9,25z"/>
    </g>
    <g id="check-circle">
      <path class="st0" d="M12,24.5C12,24.5,12,24.5,12,24.5c-6.6,0-12-5.4-12-12c0-6.6,5.4-12,12-12c0,0,0,0,0,0c1.7,0,3.3,0.3,4.9,1
      c0.6,0.3,0.8,0.9,0.6,1.5c-0.3,0.6-0.9,0.8-1.5,0.6c-1.2-0.6-2.6-0.8-3.9-0.8c0,0,0,0,0,0c-5.3,0-9.7,4.3-9.7,9.7
      c0,5.3,4.3,9.7,9.7,9.7c0,0,0,0,0,0c5.3,0,9.7-4.3,9.7-9.7v-1c0-0.6,0.5-1.1,1.1-1.1c0.6,0,1.1,0.5,1.1,1.1v1
      C23.9,19.1,18.6,24.5,12,24.5z M12.8,15.5L24.7,3.6c0.4-0.4,0.4-1.2,0-1.6c-0.4-0.4-1.2-0.4-1.6,0L12,13.1l-2.4-2.4
      c-0.4-0.4-1.2-0.4-1.6,0c-0.4,0.4-0.4,1.2,0,1.6l3.2,3.2c0.2,0.2,0.5,0.3,0.8,0.3C12.2,15.8,12.5,15.7,12.8,15.5z"/>
    </g>
    <g id="times-circle">
      <path class="st0" d="M12.5,25C5.6,25,0,19.4,0,12.5S5.6,0,12.5,0S25,5.6,25,12.5S19.4,25,12.5,25z M12.5,2.3
      C6.9,2.3,2.3,6.9,2.3,12.5c0,5.6,4.6,10.2,10.2,10.2c5.6,0,10.2-4.6,10.2-10.2C22.7,6.9,18.1,2.3,12.5,2.3z M14.1,12.5l2.6-2.6
      c0.4-0.4,0.4-1.2,0-1.6s-1.2-0.4-1.6,0l-2.6,2.6L9.9,8.3c-0.4-0.4-1.2-0.4-1.6,0s-0.4,1.2,0,1.6l2.6,2.6l-2.6,2.6
      c-0.4,0.4-0.4,1.2,0,1.6s1.2,0.4,1.6,0l2.6-2.6l2.6,2.6c0.2,0.2,0.5,0.3,0.8,0.3c0.3,0,0.6-0.1,0.8-0.3c0.4-0.4,0.4-1.2,0-1.6
      L14.1,12.5z"/>
    </g>
    
  </defs>
</svg>
