<svg xmlns="http://www.w3.org/2000/svg" width="34" height="34" viewBox="0 0 34 34">
    <path fill="#0D74B7" fill-rule="nonzero" d="M30.391 18.639c.133 1.71-.309 3.723-.726 5.171a1.329 1.329 0 0 1-2.553-.736c.538-1.864.755-3.52.595-4.54-.05-.323.02-.653.197-.927.035-.052 3.44-5.37 3.44-9.04 0-3.356-2.857-5.897-6.645-5.91-3.551 0-6.19 1.555-8.303 4.893a1.328 1.328 0 1 1-2.245-1.42c.431-.681.886-1.303 1.363-1.87-.833-.202-1.546-.47-2.212-.722-1.243-.47-2.317-.877-4.042-.882-3.284.017-6.604 2.05-6.604 5.91 0 3.672 3.405 8.989 3.44 9.042.177.274.247.604.197.926-.205 1.308.21 3.629 1.084 6.056.897 2.493 2.117 4.705 3.265 5.919.625.66 1.053.834 1.225.834h.005l.032-.002.01-.002c-.036-.394-.182-1.037-.287-1.5-.355-1.559-.797-3.499-.34-5.528.547-2.437 2.283-4.342 5.159-5.662a1.327 1.327 0 0 1 1.092-.007c2.893 1.283 4.639 3.17 5.187 5.61.456 2.028.01 3.982-.348 5.552-.102.447-.257 1.127-.294 1.535l.022.003h.006c.26.02 1.194-.403 2.525-2.555a1.328 1.328 0 0 1 2.26 1.397C25.327 32.718 23.727 34 22.135 34c-.075 0-.15-.004-.225-.01-.87-.014-1.536-.303-1.98-.86-.807-1.011-.5-2.358-.144-3.917.622-2.723 1.322-5.795-2.778-7.883-4.105 2.153-3.409 5.21-2.792 7.92.35 1.543.654 2.875-.149 3.88-.444.557-1.113.846-1.986.86-.073.006-.147.01-.22.01-1.046 0-2.104-.56-3.15-1.666-1.407-1.488-2.804-3.983-3.834-6.844-.95-2.638-1.4-5.093-1.268-6.85C2.74 17.21 0 12.4 0 8.567 0 3.724 3.947.052 9.191 0L9.227 0H9.285c2.197.01 3.662.564 4.956 1.053 1.194.451 2.232.842 3.836.87C19.98.634 22.177 0 24.704 0c2.467.009 4.766.837 6.478 2.331C33 3.918 34 6.131 34 8.567c0 3.83-2.74 8.641-3.609 10.072zM28.658 8.567c0-.911-.334-1.667-.994-2.247-.738-.649-1.79-1.01-2.96-1.017h-.009a1.328 1.328 0 0 0-.008 2.657c.608.003 1.03.185 1.223.355.072.064.092.08.092.252a1.328 1.328 0 1 0 2.656 0z"/>
</svg>
